<svg width="0" height="0" class="hidden">
  <symbol viewBox="0 0 356 377" fill="none" xmlns="http://www.w3.org/2000/svg" id="add-image">
      <path d="M126.229 333.797C32.843 293.408 15.153 222.439 41.4437 150.314C67.3544 79.2318 241.251 9.94863 275.974 61.1511C310.698 112.354 224.172 120.875 267.146 187.097C303.047 242.419 321.893 297.331 257.095 332.106C242.178 343.706 187.111 360.128 126.229 333.797Z" fill="#EEEEF5"/>
      <path d="M126.229 333.797C32.843 293.408 15.153 222.439 41.4437 150.314C67.3544 79.2318 241.251 9.94863 275.974 61.1511C310.698 112.354 224.172 120.875 267.146 187.097C303.047 242.419 321.893 297.331 257.095 332.106C242.178 343.706 187.111 360.128 126.229 333.797Z" fill="#F7F8FB"/>
      <path d="M43.1204 95.5202C32.957 101.388 19.9751 97.9298 14.1244 87.7961C8.27374 77.6624 11.7698 64.6906 21.9331 58.8228C32.0965 52.955 58.2229 48.8242 64.0736 58.9579C69.9243 69.0916 53.2837 89.6524 43.1204 95.5202Z" fill="#F7F8FB"/>
      <path d="M243.179 205.268V173.516L186.356 116.647H167.415H101.651C96.1286 116.647 91.6514 121.124 91.6514 126.647V205.268V248.767C91.6514 249.288 91.8542 249.788 92.2168 250.161L115.563 274.196L136.196 293.355C136.566 293.699 137.052 293.889 137.557 293.889H167.415H195.863C196.345 293.889 196.81 293.716 197.173 293.401L219.333 274.196L242.616 250.16C242.977 249.787 243.179 249.288 243.179 248.769V205.268Z" fill="white"/>
      <path d="M196.356 173.516H243.179L186.356 116.647V163.516C186.356 169.039 190.833 173.516 196.356 173.516Z" fill="#DFE3E7"/>
      <path d="M196.356 173.516H243.179L186.356 116.647V163.516C186.356 169.039 190.833 173.516 196.356 173.516Z" fill="url(#paint0_linear)"/>
      <path fill-rule="evenodd" clip-rule="evenodd" d="M173.334 187.97C173.334 184.699 170.684 182.047 167.415 182.047C164.146 182.047 161.496 184.699 161.496 187.97V199.818H149.658C146.389 199.818 143.739 202.47 143.739 205.742C143.739 209.014 146.389 211.666 149.658 211.666H161.496V223.514C161.496 226.785 164.146 229.438 167.415 229.438C170.684 229.438 173.334 226.785 173.334 223.514V211.666H185.172C188.441 211.666 191.091 209.014 191.091 205.742C191.091 202.47 188.441 199.818 185.172 199.818H173.334V187.97Z" fill="#27AE60"/>
      <path fill-rule="evenodd" clip-rule="evenodd" d="M173.334 187.97C173.334 184.699 170.684 182.047 167.415 182.047C164.146 182.047 161.496 184.699 161.496 187.97V199.818H149.658C146.389 199.818 143.739 202.47 143.739 205.742C143.739 209.014 146.389 211.666 149.658 211.666H161.496V223.514C161.496 226.785 164.146 229.438 167.415 229.438C170.684 229.438 173.334 226.785 173.334 223.514V211.666H185.172C188.441 211.666 191.091 209.014 191.091 205.742C191.091 202.47 188.441 199.818 185.172 199.818H173.334V187.97Z" fill="url(#paint1_linear)"/>
      <mask id="mask0" mask-type="alpha" maskUnits="userSpaceOnUse" x="0" y="0" width="356" height="377">
          <path d="M126.565 334.676C32.9304 294.179 15.1933 223.021 41.554 150.705C67.5337 79.4334 241.893 9.96589 276.709 61.3046C311.525 112.643 224.769 121.187 267.857 187.586C303.854 243.055 322.749 298.113 257.779 332.981C242.822 344.611 187.609 361.077 126.565 334.676Z" fill="#EEEEF5"/>
      </mask>
      <g mask="url(#mask0)">
          <path fill-rule="evenodd" clip-rule="evenodd" d="M62.1576 174.038C79.3084 188.661 111.679 221.417 123.45 252.808C129.668 269.386 134.197 280.767 137.332 288.259C131.821 291.138 124.561 290.496 116.582 286.977L125.004 270.228L109.674 283.323C99.5107 277.091 88.7031 266.825 79.1351 253.707L96.4083 244.543L72.6621 244.071C66.0101 233.296 61.1832 222.428 58.3321 212.47L87.4012 217.713L56.4965 204.826C53.8378 190.943 55.5638 179.609 62.1576 174.038ZM63.798 172.836C66.5221 174.108 70.4517 176.597 75.7005 181.134C86.9669 190.872 103.602 213.553 116.578 233.77L126.393 211.582C119.607 201.471 112.033 192.819 104.416 186.095L99.0938 199.124L97.5057 180.53C84.4659 171.039 71.9645 167.678 63.798 172.836ZM116.684 233.934C117.696 235.511 118.685 237.073 119.647 238.613C127.776 251.617 136.439 270.79 142.069 284.346C146.836 278.419 147.984 268.433 145.828 256.483L135.247 259.447L145.129 253.043C142.698 242.279 137.762 230.164 130.53 218.098L116.684 233.934ZM84.6647 226.241C87.4819 227.918 89.0486 230.48 88.1641 231.964C87.2795 233.447 84.2788 233.291 81.4615 231.614C78.6443 229.937 77.0776 227.375 77.9621 225.891C78.8467 224.407 81.8475 224.564 84.6647 226.241ZM96.2198 231.578C96.5871 231.238 96.3626 230.398 95.7183 229.702C95.074 229.006 94.2539 228.716 93.8866 229.055C93.5193 229.395 93.7438 230.235 94.3881 230.931C95.0324 231.628 95.8525 231.917 96.2198 231.578Z" fill="#E3E3E8"/>
          <path fill-rule="evenodd" clip-rule="evenodd" d="M62.1576 174.038C79.3084 188.661 111.679 221.417 123.45 252.808C129.668 269.386 134.197 280.767 137.332 288.259C131.821 291.138 124.561 290.496 116.582 286.977L125.004 270.228L109.674 283.323C99.5107 277.091 88.7031 266.825 79.1351 253.707L96.4083 244.543L72.6621 244.071C66.0101 233.296 61.1832 222.428 58.3321 212.47L87.4012 217.713L56.4965 204.826C53.8378 190.943 55.5638 179.609 62.1576 174.038ZM63.798 172.836C66.5221 174.108 70.4517 176.597 75.7005 181.134C86.9669 190.872 103.602 213.553 116.578 233.77L126.393 211.582C119.607 201.471 112.033 192.819 104.416 186.095L99.0938 199.124L97.5057 180.53C84.4659 171.039 71.9645 167.678 63.798 172.836ZM116.684 233.934C117.696 235.511 118.685 237.073 119.647 238.613C127.776 251.617 136.439 270.79 142.069 284.346C146.836 278.419 147.984 268.433 145.828 256.483L135.247 259.447L145.129 253.043C142.698 242.279 137.762 230.164 130.53 218.098L116.684 233.934ZM84.6647 226.241C87.4819 227.918 89.0486 230.48 88.1641 231.964C87.2795 233.447 84.2788 233.291 81.4615 231.614C78.6443 229.937 77.0776 227.375 77.9621 225.891C78.8467 224.407 81.8475 224.564 84.6647 226.241ZM96.2198 231.578C96.5871 231.238 96.3626 230.398 95.7183 229.702C95.074 229.006 94.2539 228.716 93.8866 229.055C93.5193 229.395 93.7438 230.235 94.3881 230.931C95.0324 231.628 95.8525 231.917 96.2198 231.578Z" fill="url(#paint2_linear)"/>
          <path fill-rule="evenodd" clip-rule="evenodd" d="M209.496 330.831C220.883 328.099 233.402 322.62 245.554 314.635L223.69 296.373L252.081 310.074C262.282 302.505 270.748 294.066 277.056 285.603L260.206 277.977L282.558 277.283C290.664 263.243 292.334 249.914 285.583 241.257C278.793 232.55 264.902 230.391 248.502 234.042L246.584 236.513L229.437 258.608L238.253 236.974C234.399 238.311 230.466 239.931 226.505 241.826L206.447 264.018L208.214 275.045L203.311 267.487L197.086 274.374L201.735 265.056L198.422 259.949C186.475 269.921 177.438 280.998 172.161 291.478L184.484 304.405L169.871 296.583C165.659 307.313 165.732 317.081 171.07 323.927C172.156 325.319 173.423 326.543 174.852 327.604C175.098 327.231 175.346 326.855 175.596 326.475C182.589 315.868 191.242 302.742 202.209 292.085C220.035 274.763 241.733 263.904 257.385 257.904C269.907 253.104 284.436 249.169 285.694 249.992C281.022 251.636 276.557 253.045 272.211 254.416C257.455 259.072 244.066 263.296 228.586 274.831C210.554 288.267 196.27 312.886 186.819 332.309C192.314 333.193 198.658 332.967 205.499 331.686L199.166 317.5L209.496 330.831ZM207.888 252.724L205.427 257.657L204.972 254.815C205.329 254.551 205.689 254.289 206.05 254.028C206.662 253.587 207.274 253.152 207.888 252.724ZM238.465 285.488C239.197 286.928 241.409 287.348 243.404 286.427C245.4 285.505 246.424 283.59 245.691 282.15C244.959 280.709 242.747 280.289 240.752 281.211C238.756 282.133 237.732 284.048 238.465 285.488Z" fill="#EFEFF8"/>
          <path fill-rule="evenodd" clip-rule="evenodd" d="M139.903 317.122C118.254 289.224 71.3294 275.239 47.1494 269.274C43.7923 279.881 45.5031 292.41 51.4346 304.748L76.0312 301.433L64.784 308.795L102.338 299.65L60.5899 319.41C66.6509 327.219 74.3989 334.573 83.5908 340.867C97.7938 350.592 113.115 356.191 127.142 357.634L139.759 339.138L131.474 357.95C141.006 358.352 149.793 356.75 157.029 353.136C154.656 342.675 149.869 329.965 139.903 317.122ZM71.58 272.181C62.8089 269.805 53.4668 268.226 47.662 267.776C48.5981 265.236 49.838 262.816 51.3936 260.547C57.8506 251.13 68.698 245.845 81.5737 244.666L111.758 280.449L97.6812 245.195C107.888 246.691 118.666 250.329 129.123 256.099L142.002 304.652L142.249 264.638C156.369 275.344 166.607 288.574 171.933 301.758L157.155 320.123L173.993 307.673C177.614 320.069 176.706 332.079 170.4 341.531C159.752 327.747 145.686 310.456 134.568 301.962C113.56 285.911 88.2997 276.712 71.58 272.181ZM115.793 310.259C116.307 308.8 115.621 307.229 114.261 306.75C112.9 306.271 111.38 307.066 110.865 308.525C110.351 309.984 111.037 311.555 112.398 312.034C113.758 312.513 115.278 311.718 115.793 310.259Z" fill="#EFEFF8"/>
          <path fill-rule="evenodd" clip-rule="evenodd" d="M250.598 317.965C233.871 320.78 201.266 327.817 184.961 345.075C177.456 353.02 173.466 361.11 171.243 367.838C175.932 370.523 181.789 371.963 188.268 372.127L183.764 359.466L191.221 372.115C200.806 371.799 211.513 368.827 221.704 363.109C228.3 359.408 233.981 354.95 238.546 350.12L211.432 335.341L236.329 342.997L229.145 337.683L245.609 340.949C250.352 333.154 252.248 325.045 250.598 317.965ZM250.339 316.963C246.381 316.998 239.961 317.61 233.881 318.771C222.29 320.982 204.64 325.862 189.467 335.409C181.437 340.461 170.893 351.129 162.87 359.658C159.154 353.2 159.247 345.313 162.429 337.376L173.1 346.264L164.172 333.603C168.554 325.228 176.267 317.043 186.461 310.68L184.273 336.834L195.853 305.688C203.275 302.386 210.789 300.492 217.79 299.971L206.182 322.374L228.731 300.346C237.382 301.693 244.418 305.631 248.237 312.073C249.157 313.625 249.855 315.262 250.339 316.963Z" fill="#E3E3E8"/>
          <path fill-rule="evenodd" clip-rule="evenodd" d="M250.598 317.965C233.871 320.78 201.266 327.817 184.961 345.075C177.456 353.02 173.466 361.11 171.243 367.838C175.932 370.523 181.789 371.963 188.268 372.127L183.764 359.466L191.221 372.115C200.806 371.799 211.513 368.827 221.704 363.109C228.3 359.408 233.981 354.95 238.546 350.12L211.432 335.341L236.329 342.997L229.145 337.683L245.609 340.949C250.352 333.154 252.248 325.045 250.598 317.965ZM250.339 316.963C246.381 316.998 239.961 317.61 233.881 318.771C222.29 320.982 204.64 325.862 189.467 335.409C181.437 340.461 170.893 351.129 162.87 359.658C159.154 353.2 159.247 345.313 162.429 337.376L173.1 346.264L164.172 333.603C168.554 325.228 176.267 317.043 186.461 310.68L184.273 336.834L195.853 305.688C203.275 302.386 210.789 300.492 217.79 299.971L206.182 322.374L228.731 300.346C237.382 301.693 244.418 305.631 248.237 312.073C249.157 313.625 249.855 315.262 250.339 316.963Z" fill="url(#paint3_linear)"/>
      </g>
      <defs>
          <linearGradient id="paint0_linear" x1="214.767" y1="116.647" x2="214.767" y2="173.516" gradientUnits="userSpaceOnUse">
              <stop stop-color="white"/>
              <stop offset="1" stop-color="white" stop-opacity="0"/>
          </linearGradient>
          <linearGradient id="paint1_linear" x1="167.415" y1="182.047" x2="167.415" y2="229.438" gradientUnits="userSpaceOnUse">
              <stop stop-color="#F4FFF9" stop-opacity="0.63"/>
              <stop offset="1" stop-color="white" stop-opacity="0"/>
          </linearGradient>
          <linearGradient id="paint2_linear" x1="84.0687" y1="166.708" x2="118.118" y2="293.782" gradientUnits="userSpaceOnUse">
              <stop stop-color="white" stop-opacity="0"/>
              <stop offset="1" stop-color="#CEC9DD"/>
          </linearGradient>
          <linearGradient id="paint3_linear" x1="239.354" y1="302.269" x2="172.417" y2="369.205" gradientUnits="userSpaceOnUse">
              <stop stop-color="white" stop-opacity="0"/>
              <stop offset="1" stop-color="#CEC9DD"/>
          </linearGradient>
      </defs>
  </symbol>
  <symbol id="arrow-down" viewBox="0 0 16 9" fill="none" xmlns="http://www.w3.org/2000/svg">
    <path d="M7.29289 8.70711C7.68342 9.09763 8.31658 9.09763 8.70711 8.70711L15.0711 2.34315C15.4616 1.95263 15.4616 1.31946 15.0711 0.928936C14.6805 0.538412 14.0474 0.538411 13.6569 0.928935L8 6.58579L2.34315 0.928929C1.95263 0.538405 1.31946 0.538404 0.928936 0.928928C0.538411 1.31945 0.538411 1.95262 0.928935 2.34314L7.29289 8.70711ZM7 7L7 8L9 8L9 7L7 7Z" fill="#383838"/>
  </symbol>
  <symbol viewBox="0 0 32 32" fill="none" xmlns="http://www.w3.org/2000/svg" id="bell">
    <path d="M25 26V27C25.5523 27 26 26.5523 26 26H25ZM7 26H6C6 26.5523 6.44772 27 7 27V26ZM25 25H7V27H25V25ZM24 14V15.5H26V14H24ZM8 15.5V14H6V15.5H8ZM8 26V20.75H6V26H8ZM8 20.75V15.5H6V20.75H8ZM24 15.5V20.75H26V15.5H24ZM24 20.75V26H26V20.75H24ZM16 6C20.4183 6 24 9.58172 24 14H26C26 8.47715 21.5228 4 16 4V6ZM16 4C10.4772 4 6 8.47715 6 14H8C8 9.58172 11.5817 6 16 6V4Z" fill="#98A1B8"/>
    <rect x="4.5" y="25.5" width="23" height="1" rx="0.5" stroke="#98A1B8"/>
    <rect x="15.5" y="0.5" width="1" height="5" rx="0.5" stroke="#98A1B8"/>
    <path d="M19 26C19 26.394 18.9224 27.7841 18.7716 28.1481C18.6209 28.512 18.3999 28.8427 18.1213 29.1213C17.8427 29.3999 17.512 29.6209 17.1481 29.7716C16.7841 29.9224 16.394 30 16 30C15.606 30 15.2159 29.9224 14.8519 29.7716C14.488 29.6209 14.1573 29.3999 13.8787 29.1213C13.6001 28.8427 13.3791 28.512 13.2284 28.1481C13.0776 27.7841 13 26.394 13 26" stroke="#98A1B8" stroke-width="2"/>
  </symbol>
  <symbol viewBox="0 0 16 17" fill="none" xmlns="http://www.w3.org/2000/svg" id="check">
    <path d="M2.48241 10.1644L7.48047 14.1641L14.4813 6.16407" stroke="white" stroke-width="2" stroke-linecap="round" stroke-linejoin="round"/>
  </symbol>
  <symbol viewBox="0 0 30 28" fill="none" xmlns="http://www.w3.org/2000/svg" id="cube">
    <path fill-rule="evenodd" clip-rule="evenodd" d="M12.4564 3.66412C14.0254 2.73696 15.9746 2.73696 17.5436 3.66412L24.0343 7.49952L15 12.838L5.96568 7.49952L12.4564 3.66412ZM16 14.5701L25 9.25196V17.0757C25 18.844 24.066 20.4808 22.5436 21.3804L16 25.2471V14.5701ZM14 14.5701V25.2471L7.45635 21.3804C5.93399 20.4808 5 18.844 5 17.0757V9.25196L14 14.5701Z" fill="#27AE60"/>
  </symbol>
  <symbol id="hide-password" viewBox="0 0 32 32" fill="none" xmlns="http://www.w3.org/2000/svg">
    <path d="M29.8507 17.2208L30.5547 17.9311V17.9311L29.8507 17.2208ZM2.14926 14.7792L2.85317 15.4895L2.85317 15.4895L2.14926 14.7792ZM29.8499 14.7784L30.5538 14.0681L29.8499 14.7784ZM19.0312 9.37232C19.5681 9.50181 20.1083 9.17155 20.2378 8.63467C20.3673 8.09778 20.037 7.55757 19.5002 7.42807L19.0312 9.37232ZM5.80583 21.5127C6.26448 21.8203 6.8857 21.6979 7.19337 21.2393C7.50103 20.7806 7.37864 20.1594 6.91999 19.8517L5.80583 21.5127ZM2.14996 17.2215L1.44607 17.9318H1.44607L2.14996 17.2215ZM29.1468 16.5105C28.052 17.5955 26.215 19.2302 23.91 20.5889C21.601 21.9501 18.8805 23 16 23V25C19.3597 25 22.4345 23.7803 24.9256 22.3119C27.4209 20.841 29.3892 19.0861 30.5547 17.9311L29.1468 16.5105ZM2.85317 15.4895C3.94801 14.4045 5.78504 12.7698 8.08998 11.4111C10.399 10.0499 13.1195 9 16 9V7C12.6403 7 9.56554 8.21965 7.07436 9.68813C4.57906 11.159 2.61083 12.9139 1.44535 14.0689L2.85317 15.4895ZM21.9956 10.4098C25.1876 11.8661 27.7557 14.111 29.1461 15.4887L30.5538 14.0681C29.0847 12.6123 26.3224 10.1855 22.8257 8.59021L21.9956 10.4098ZM16 23C13.8522 23 11.7917 22.4165 9.91954 21.5512L9.08046 23.3667C11.1413 24.3192 13.4904 25 16 25V23ZM16 9C17.0341 9 18.048 9.13518 19.0312 9.37232L19.5002 7.42807C18.3808 7.15809 17.209 7 16 7V9ZM6.91999 19.8517C5.16104 18.6718 3.7545 17.4037 2.85384 16.5112L1.44607 17.9318C2.40807 18.8851 3.91267 20.2427 5.80583 21.5127L6.91999 19.8517ZM1.44535 14.0689C0.360421 15.1441 0.362106 16.8576 1.44607 17.9318L2.85384 16.5112C2.5585 16.2185 2.55884 15.7812 2.85317 15.4895L1.44535 14.0689ZM30.5547 17.9311C31.6396 16.8558 31.6377 15.1422 30.5538 14.0681L29.1461 15.4887C29.4415 15.7815 29.4411 16.2189 29.1468 16.5105L30.5547 17.9311Z" fill="#98A1B8"/>
    <path d="M19.6049 12.5352C19.2222 12.1371 18.5891 12.1246 18.191 12.5074C17.7928 12.8901 17.7804 13.5231 18.1631 13.9213L19.6049 12.5352ZM11.0281 16.5324C11.0864 17.0816 11.5788 17.4796 12.128 17.4213C12.6772 17.363 13.0752 16.8706 13.0169 16.3214L11.0281 16.5324ZM16.253 13.0105C16.8034 13.0562 17.2866 12.6471 17.3324 12.0967C17.3781 11.5464 16.9691 11.0631 16.4187 11.0173L16.253 13.0105ZM19 16C19 17.6569 17.6569 19 16 19V21C18.7614 21 21 18.7614 21 16H19ZM13 16C13 14.3431 14.3431 13 16 13V11C13.2386 11 11 13.2386 11 16H13ZM16 19C15.1224 19 14.3339 18.6244 13.7839 18.0222L12.3071 19.3708C13.22 20.3706 14.5372 21 16 21V19ZM18.1631 13.9213C18.6824 14.4614 19 15.1926 19 16H21C21 14.6554 20.4679 13.433 19.6049 12.5352L18.1631 13.9213ZM13.0169 16.3214C13.0058 16.2161 13 16.1089 13 16H11C11 16.1795 11.0095 16.3571 11.0281 16.5324L13.0169 16.3214ZM16 13C16.0854 13 16.1698 13.0035 16.253 13.0105L16.4187 11.0173C16.2804 11.0058 16.1408 11 16 11V13Z" fill="#98A1B8"/>
    <rect x="26.6064" y="4.68629" width="1" height="31" rx="0.5" transform="rotate(45 26.6064 4.68629)" fill="#98A1B8" stroke="#98A1B8"/>
  </symbol>
  <symbol id="logo" viewBox="0 0 44 48" fill="none" xmlns="http://www.w3.org/2000/svg">
    <path fill-rule="evenodd" clip-rule="evenodd" d="M25.8101 1.01538C23.4521 -0.338463 20.547 -0.33846 18.189 1.01538L3.81009 9.27124C2.71695 9.89886 1.81839 10.7733 1.16895 11.8006L12.2718 18.3029C13.368 15.6641 14.6385 13.0087 15.8886 10.5705C18.4468 5.58141 25.2462 5.58141 27.8044 10.5705C29.0756 13.0499 30.3679 15.7538 31.4765 18.4366L42.8169 11.7795C42.1685 10.7613 41.2746 9.89457 40.1892 9.27124L25.8101 1.01538Z" fill="#0A896B"/>
    <path fill-rule="evenodd" clip-rule="evenodd" d="M25.8101 1.01538C23.4521 -0.338463 20.547 -0.33846 18.189 1.01538L3.81009 9.27124C2.71695 9.89886 1.81839 10.7733 1.16895 11.8006L12.2718 18.3029C13.368 15.6641 14.6385 13.0087 15.8886 10.5705C18.4468 5.58141 25.2462 5.58141 27.8044 10.5705C29.0756 13.0499 30.3679 15.7538 31.4765 18.4366L42.8169 11.7795C42.1685 10.7613 41.2746 9.89457 40.1892 9.27124L25.8101 1.01538Z" fill="#4ADE89"/>
    <path d="M0 15.8348V32.3464C0 35.0542 1.45256 37.556 3.8105 38.91L18.1895 47.1659C18.8643 47.5533 19.5839 47.83 20.3227 47.9956V40.2749C16.9487 39.8103 9.14522 37.8958 9.14522 30.1232C9.14522 26.9158 10.4741 22.6317 12.2722 18.3029L1.16935 11.8006C0.417931 12.9892 0 14.3824 0 15.8348Z" fill="#27AE60"/>
    <path d="M0 15.8348V32.3464C0 35.0542 1.45256 37.556 3.8105 38.91L18.1895 47.1659C18.8643 47.5533 19.5839 47.83 20.3227 47.9956V40.2749C16.9487 39.8103 9.14522 37.8958 9.14522 30.1232C9.14522 26.9158 10.4741 22.6317 12.2722 18.3029L1.16935 11.8006C0.417931 12.9892 0 14.3824 0 15.8348Z" fill="url(#paint0_radial)"/>
    <path d="M34.5485 30.1233C34.5485 37.8958 26.7451 39.8103 23.3711 40.2749V48C24.217 47.8461 25.0428 47.6066 25.8105 47.166L40.1893 38.91C42.5474 37.5564 43.9998 35.0542 43.9998 32.3464V15.8348C43.9998 14.3739 43.577 12.9727 42.8173 11.7796L31.4769 18.4367C33.247 22.7198 34.5485 26.9489 34.5485 30.1233Z" fill="#27AE60"/>
    <path d="M34.5485 30.1233C34.5485 37.8958 26.7451 39.8103 23.3711 40.2749V48C24.217 47.8461 25.0428 47.6066 25.8105 47.166L40.1893 38.91C42.5474 37.5564 43.9998 35.0542 43.9998 32.3464V15.8348C43.9998 14.3739 43.577 12.9727 42.8173 11.7796L31.4769 18.4367C33.247 22.7198 34.5485 26.9489 34.5485 30.1233Z" fill="url(#paint1_radial)"/>
    <path d="M9.14551 30.1099C9.14551 37.8822 16.9495 39.9566 20.3235 40.4213V34.2394L14.5197 31.1317C13.7785 30.7349 13.5012 29.8156 13.9003 29.0785C14.2994 28.3414 15.2237 28.0656 15.9649 28.4625L20.3235 30.7964V24.671L16.0849 22.5635C15.3319 22.1891 15.0268 21.2786 15.4032 20.5298C15.7796 19.7811 16.6952 19.4775 17.4481 19.8519L20.3235 21.2816V13.6288C20.3235 12.7916 21.0059 12.113 21.8477 12.113C22.6895 12.113 23.3719 12.7916 23.3719 13.6288V21.2812L26.2462 19.8519C26.9991 19.4775 27.9146 19.781 28.2911 20.5298C28.6676 21.2785 28.3624 22.189 27.6095 22.5634L23.3719 24.6706V30.796L27.7294 28.4625C28.4706 28.0656 29.395 28.3414 29.7941 29.0785C30.1932 29.8156 29.9159 30.7348 29.1747 31.1317L23.3719 34.2391V40.4213C26.7459 39.9566 34.549 37.8822 34.549 30.1099C34.549 26.9355 33.2472 22.7064 31.4772 18.4233C30.3686 15.7406 29.0763 13.0366 27.805 10.5573C25.2469 5.56811 18.4474 5.56814 15.8893 10.5573C14.6392 12.9954 13.3687 15.6508 12.2725 18.2896C10.4744 22.6184 9.14551 26.9025 9.14551 30.1099Z" fill="white"/>
    <path fill-rule="evenodd" clip-rule="evenodd" d="M20.3234 13.642C20.3234 12.8049 21.0059 12.1263 21.8476 12.1263C22.6894 12.1263 23.3718 12.8049 23.3718 13.6421V21.2945L26.2462 19.8652C26.9991 19.4908 27.9146 19.7943 28.2911 20.5431C28.6676 21.2918 28.3624 22.2023 27.6095 22.5767L23.3718 24.6839V30.8093L27.7294 28.4758C28.4705 28.0789 29.3949 28.3547 29.794 29.0918C30.1931 29.8288 29.9158 30.7481 29.1747 31.145L23.3718 34.2523V40.273H23.3709V48H20.3225V39.9156H20.3234V34.2527L14.5197 31.145C13.7785 30.7482 13.5012 29.8289 13.9002 29.0918C14.2993 28.3547 15.2237 28.0789 15.9649 28.4758L20.3234 30.8097V24.6842L16.0848 22.5767C15.3319 22.2024 15.0267 21.2919 15.4032 20.5431C15.7796 19.7943 16.6952 19.4908 17.4481 19.8652L20.3234 21.2949V13.642Z" fill="#4ADE89"/>
    <defs>
    <radialGradient id="paint0_radial" cx="0" cy="0" r="1" gradientUnits="userSpaceOnUse" gradientTransform="translate(26.9747 43.3733) rotate(-141.518) scale(36.7266 20.8433)">
    <stop stop-color="white" stop-opacity="0.12"/>
    <stop offset="1" stop-color="white" stop-opacity="0"/>
    </radialGradient>
    <radialGradient id="paint1_radial" cx="0" cy="0" r="1" gradientUnits="userSpaceOnUse" gradientTransform="translate(50.7521 43.3746) rotate(-141.914) scale(37.0764 20.9724)">
    <stop stop-color="white" stop-opacity="0.12"/>
    <stop offset="1" stop-color="white" stop-opacity="0"/>
    </radialGradient>
    </defs>
  </symbol>
  <symbol id="logout" viewBox="0 0 40 38" fill="none" xmlns="http://www.w3.org/2000/svg">
    <g filter="url(#filter0_d)">
    <path class="change-fill" d="M23 9.42857C23 9.98086 23.4477 10.4286 24 10.4286C24.5523 10.4286 25 9.98086 25 9.42857H23ZM25 22.5714C25 22.0191 24.5523 21.5714 24 21.5714C23.4477 21.5714 23 22.0191 23 22.5714H25ZM7 4H22V2H7V4ZM22 28H7V30H22V28ZM6 27V5H4V27H6ZM23 5V9.42857H25V5H23ZM23 22.5714V27H25V22.5714H23ZM7 28C6.44772 28 6 27.5523 6 27H4C4 28.6569 5.34315 30 7 30V28ZM22 30C23.6569 30 25 28.6569 25 27H23C23 27.5523 22.5523 28 22 28V30ZM22 4C22.5523 4 23 4.44772 23 5H25C25 3.34315 23.6569 2 22 2V4ZM7 2C5.34315 2 4 3.34315 4 5H6C6 4.44772 6.44772 4 7 4V2Z" fill="#AD93F1"/>
    <path class="change-fill" d="M18 15C17.4477 15 17 15.4477 17 16C17 16.5523 17.4477 17 18 17V15ZM35.7071 16.7071C36.0976 16.3166 36.0976 15.6834 35.7071 15.2929L29.3431 8.92893C28.9526 8.53841 28.3195 8.53841 27.9289 8.92893C27.5384 9.31946 27.5384 9.95262 27.9289 10.3431L33.5858 16L27.9289 21.6569C27.5384 22.0474 27.5384 22.6805 27.9289 23.0711C28.3195 23.4616 28.9526 23.4616 29.3431 23.0711L35.7071 16.7071ZM18 17H35V15H18V17Z" fill="#AD93F1"/>
    </g>
    <defs>
    <filter id="filter0_d" x="0" y="0" width="40" height="40" filterUnits="userSpaceOnUse" color-interpolation-filters="sRGB">
    <feFlood flood-opacity="0" result="BackgroundImageFix"/>
    <feColorMatrix in="SourceAlpha" type="matrix" values="0 0 0 0 0 0 0 0 0 0 0 0 0 0 0 0 0 0 127 0"/>
    <feOffset dy="4"/>
    <feGaussianBlur stdDeviation="2"/>
    <feColorMatrix type="matrix" values="0 0 0 0 0 0 0 0 0 0 0 0 0 0 0 0 0 0 0.25 0"/>
    <feBlend mode="normal" in2="BackgroundImageFix" result="effect1_dropShadow"/>
    <feBlend mode="normal" in="SourceGraphic" in2="effect1_dropShadow" result="shape"/>
    </filter>
    </defs>
  </symbol>
  <symbol id="massenger" viewBox="0 0 32 32" fill="none" xmlns="http://www.w3.org/2000/svg">
    <path class="change-stroke" d="M1 6C1 4.89543 1.89543 4 3 4H29C30.1046 4 31 4.89543 31 6V23V29.0362L24.6012 24.3825C24.2593 24.1339 23.8475 24 23.4248 24H16H3C1.89543 24 1 23.1046 1 22V6Z" stroke="#AD93F1" stroke-width="2" stroke-linejoin="round"/>
    <rect class="change-stroke" x="7.5" y="10.5" width="17" height="1" rx="0.5" stroke="#AD93F1"/>
    <rect class="change-stroke" x="16.5" y="16.5" width="7" height="1" rx="0.5" stroke="#AD93F1"/>
  </symbol>
  <symbol id="plan-1" viewBox="0 0 72 72" fill="none" xmlns="http://www.w3.org/2000/svg">
    <path d="M17.1609 40C17.0675 40 16.9882 39.972 16.9229 39.916C16.8669 39.8507 16.8389 39.7713 16.8389 39.678V31.838L14.5149 33.63C14.4495 33.686 14.3795 33.714 14.3049 33.714C14.2209 33.714 14.1415 33.6673 14.0669 33.574L13.7029 33.112C13.6562 33.0467 13.6329 32.9813 13.6329 32.916C13.6329 32.804 13.6795 32.7153 13.7729 32.65L16.8249 30.298C16.9275 30.2327 17.0489 30.2 17.1889 30.2H17.9029C17.9962 30.2 18.0709 30.2327 18.1269 30.298C18.1922 30.354 18.2249 30.4287 18.2249 30.522V39.678C18.2249 39.7713 18.1922 39.8507 18.1269 39.916C18.0709 39.972 17.9962 40 17.9029 40H17.1609ZM23.7232 40.14C22.5192 40.14 21.6372 39.79 21.0772 39.09C20.5172 38.39 20.2185 37.4707 20.1812 36.332C20.1718 36.08 20.1672 35.674 20.1672 35.114C20.1672 34.5353 20.1718 34.1153 20.1812 33.854C20.2092 32.734 20.5078 31.824 21.0772 31.124C21.6465 30.4147 22.5285 30.06 23.7232 30.06C24.9272 30.06 25.8138 30.4147 26.3832 31.124C26.9525 31.824 27.2512 32.734 27.2792 33.854C27.2978 34.3767 27.3072 34.7967 27.3072 35.114C27.3072 35.422 27.2978 35.828 27.2792 36.332C27.2418 37.4707 26.9432 38.39 26.3832 39.09C25.8232 39.79 24.9365 40.14 23.7232 40.14ZM23.7232 38.936C24.4232 38.936 24.9505 38.7027 25.3052 38.236C25.6692 37.7693 25.8605 37.1113 25.8792 36.262C25.8978 35.7207 25.9072 35.3287 25.9072 35.086C25.9072 34.8247 25.8978 34.442 25.8792 33.938C25.8605 33.098 25.6738 32.44 25.3192 31.964C24.9645 31.488 24.4325 31.25 23.7232 31.25C23.0232 31.25 22.4912 31.488 22.1272 31.964C21.7725 32.44 21.5858 33.098 21.5672 33.938L21.5532 35.086L21.5672 36.262C21.5858 37.1113 21.7725 37.7693 22.1272 38.236C22.4912 38.7027 23.0232 38.936 23.7232 38.936ZM32.6099 40.14C31.4059 40.14 30.5239 39.79 29.9639 39.09C29.4039 38.39 29.1052 37.4707 29.0679 36.332C29.0585 36.08 29.0539 35.674 29.0539 35.114C29.0539 34.5353 29.0585 34.1153 29.0679 33.854C29.0959 32.734 29.3945 31.824 29.9639 31.124C30.5332 30.4147 31.4152 30.06 32.6099 30.06C33.8139 30.06 34.7005 30.4147 35.2699 31.124C35.8392 31.824 36.1379 32.734 36.1659 33.854C36.1845 34.3767 36.1939 34.7967 36.1939 35.114C36.1939 35.422 36.1845 35.828 36.1659 36.332C36.1285 37.4707 35.8299 38.39 35.2699 39.09C34.7099 39.79 33.8232 40.14 32.6099 40.14ZM32.6099 38.936C33.3099 38.936 33.8372 38.7027 34.1919 38.236C34.5559 37.7693 34.7472 37.1113 34.7659 36.262C34.7845 35.7207 34.7939 35.3287 34.7939 35.086C34.7939 34.8247 34.7845 34.442 34.7659 33.938C34.7472 33.098 34.5605 32.44 34.2059 31.964C33.8512 31.488 33.3192 31.25 32.6099 31.25C31.9099 31.25 31.3779 31.488 31.0139 31.964C30.6592 32.44 30.4725 33.098 30.4539 33.938L30.4399 35.086L30.4539 36.262C30.4725 37.1113 30.6592 37.7693 31.0139 38.236C31.3779 38.7027 31.9099 38.936 32.6099 38.936ZM41.8482 40C41.7549 40 41.6756 39.972 41.6102 39.916C41.5542 39.8507 41.5262 39.7713 41.5262 39.678V33.042C41.5262 32.9487 41.5542 32.874 41.6102 32.818C41.6756 32.7527 41.7549 32.72 41.8482 32.72H42.4782C42.5716 32.72 42.6462 32.7527 42.7022 32.818C42.7676 32.874 42.8002 32.9487 42.8002 33.042V33.532C43.2856 32.8973 43.9622 32.58 44.8302 32.58C45.8662 32.58 46.5989 33.0093 47.0282 33.868C47.2522 33.476 47.5696 33.1633 47.9802 32.93C48.3909 32.6967 48.8529 32.58 49.3662 32.58C50.1316 32.58 50.7569 32.8413 51.2422 33.364C51.7276 33.8867 51.9702 34.6427 51.9702 35.632V39.678C51.9702 39.7713 51.9376 39.8507 51.8722 39.916C51.8162 39.972 51.7416 40 51.6482 40H50.9902C50.8969 40 50.8176 39.972 50.7522 39.916C50.6962 39.8507 50.6682 39.7713 50.6682 39.678V35.758C50.6682 35.03 50.5142 34.5073 50.2062 34.19C49.9076 33.8727 49.5109 33.714 49.0162 33.714C48.5776 33.714 48.1996 33.8773 47.8822 34.204C47.5649 34.5213 47.4062 35.0393 47.4062 35.758V39.678C47.4062 39.7713 47.3736 39.8507 47.3082 39.916C47.2522 39.972 47.1776 40 47.0842 40H46.4262C46.3329 40 46.2536 39.972 46.1882 39.916C46.1322 39.8507 46.1042 39.7713 46.1042 39.678V35.758C46.1042 35.03 45.9456 34.5073 45.6282 34.19C45.3202 33.8727 44.9282 33.714 44.4522 33.714C44.0136 33.714 43.6356 33.8773 43.3182 34.204C43.0009 34.5213 42.8422 35.0347 42.8422 35.744V39.678C42.8422 39.7713 42.8096 39.8507 42.7442 39.916C42.6882 39.972 42.6136 40 42.5202 40H41.8482ZM53.6596 35.1C53.5663 35.1 53.4916 35.072 53.4356 35.016C53.3796 34.96 53.3516 34.8853 53.3516 34.792V34.484C53.3516 34.4093 53.375 34.3393 53.4216 34.274C53.4683 34.1993 53.557 34.1153 53.6876 34.022L54.4156 33.49C54.8823 33.1633 55.223 32.916 55.4376 32.748C55.6523 32.5707 55.811 32.4027 55.9136 32.244C56.0256 32.076 56.0816 31.894 56.0816 31.698C56.0816 31.4927 56.007 31.3293 55.8576 31.208C55.7083 31.0773 55.5216 31.012 55.2976 31.012C55.0456 31.012 54.8636 31.0587 54.7516 31.152C54.6396 31.2453 54.565 31.3293 54.5276 31.404C54.4903 31.488 54.467 31.5393 54.4576 31.558C54.4016 31.6607 54.3503 31.7307 54.3036 31.768C54.257 31.796 54.1963 31.81 54.1216 31.81H53.7296C53.5616 31.81 53.4776 31.7307 53.4776 31.572C53.4776 31.3293 53.5616 31.096 53.7296 30.872C53.8976 30.648 54.117 30.4707 54.3876 30.34C54.6676 30.2 54.971 30.13 55.2976 30.13C55.839 30.13 56.273 30.2793 56.5996 30.578C56.9263 30.8767 57.0896 31.2453 57.0896 31.684C57.0896 32.0107 57.015 32.3 56.8656 32.552C56.7256 32.7947 56.5156 33.0327 56.2356 33.266C55.965 33.4993 55.5496 33.8073 54.9896 34.19H56.9916C57.085 34.19 57.1596 34.218 57.2156 34.274C57.2716 34.33 57.2996 34.4047 57.2996 34.498V34.792C57.2996 34.8853 57.2716 34.96 57.2156 35.016C57.1596 35.072 57.085 35.1 56.9916 35.1H53.6596Z" fill="#98A1B8"/>
    <path d="M71 1H1V71H71V1Z" stroke="#98A1B8" stroke-width="2"/>
  </symbol>
  <symbol id="plan-2" viewBox="0 0 112 72" fill="none" xmlns="http://www.w3.org/2000/svg">
    <path d="M39.787 41C39.703 41 39.633 40.972 39.577 40.916C39.5303 40.8507 39.507 40.776 39.507 40.692C39.507 40.6267 39.5256 40.566 39.563 40.51L41.705 37.528C41.481 37.584 41.229 37.612 40.949 37.612C40.2863 37.6027 39.6983 37.4487 39.185 37.15C38.681 36.8513 38.2936 36.4547 38.023 35.96C37.7523 35.4653 37.617 34.938 37.617 34.378C37.617 33.818 37.7476 33.286 38.009 32.782C38.2796 32.2687 38.681 31.8533 39.213 31.536C39.745 31.2187 40.389 31.06 41.145 31.06C41.901 31.06 42.545 31.214 43.077 31.522C43.6183 31.83 44.0243 32.236 44.295 32.74C44.5656 33.244 44.701 33.7807 44.701 34.35C44.701 34.854 44.6123 35.302 44.435 35.694C44.2576 36.0767 44.0103 36.4967 43.693 36.954L40.991 40.72C40.9256 40.804 40.8603 40.874 40.795 40.93C40.739 40.9767 40.655 41 40.543 41H39.787ZM41.145 36.478C41.537 36.478 41.8963 36.394 42.223 36.226C42.559 36.0487 42.825 35.8013 43.021 35.484C43.217 35.1573 43.315 34.784 43.315 34.364C43.315 33.944 43.217 33.5753 43.021 33.258C42.825 32.9313 42.559 32.684 42.223 32.516C41.8963 32.3387 41.537 32.25 41.145 32.25C40.753 32.25 40.3936 32.3387 40.067 32.516C39.7403 32.684 39.479 32.9313 39.283 33.258C39.0963 33.5753 39.003 33.944 39.003 34.364C39.003 34.784 39.0963 35.1573 39.283 35.484C39.479 35.8013 39.7403 36.0487 40.067 36.226C40.3936 36.394 40.753 36.478 41.145 36.478ZM49.8218 41.14C48.6178 41.14 47.7358 40.79 47.1758 40.09C46.6158 39.39 46.3171 38.4707 46.2798 37.332C46.2705 37.08 46.2658 36.674 46.2658 36.114C46.2658 35.5353 46.2705 35.1153 46.2798 34.854C46.3078 33.734 46.6065 32.824 47.1758 32.124C47.7451 31.4147 48.6271 31.06 49.8218 31.06C51.0258 31.06 51.9125 31.4147 52.4818 32.124C53.0511 32.824 53.3498 33.734 53.3778 34.854C53.3965 35.3767 53.4058 35.7967 53.4058 36.114C53.4058 36.422 53.3965 36.828 53.3778 37.332C53.3405 38.4707 53.0418 39.39 52.4818 40.09C51.9218 40.79 51.0351 41.14 49.8218 41.14ZM49.8218 39.936C50.5218 39.936 51.0491 39.7027 51.4038 39.236C51.7678 38.7693 51.9591 38.1113 51.9778 37.262C51.9965 36.7207 52.0058 36.3287 52.0058 36.086C52.0058 35.8247 51.9965 35.442 51.9778 34.938C51.9591 34.098 51.7725 33.44 51.4178 32.964C51.0631 32.488 50.5311 32.25 49.8218 32.25C49.1218 32.25 48.5898 32.488 48.2258 32.964C47.8711 33.44 47.6845 34.098 47.6658 34.938L47.6518 36.086L47.6658 37.262C47.6845 38.1113 47.8711 38.7693 48.2258 39.236C48.5898 39.7027 49.1218 39.936 49.8218 39.936ZM59.0601 41C58.9668 41 58.8875 40.972 58.8221 40.916C58.7661 40.8507 58.7381 40.7713 58.7381 40.678V34.042C58.7381 33.9487 58.7661 33.874 58.8221 33.818C58.8875 33.7527 58.9668 33.72 59.0601 33.72H59.6901C59.7835 33.72 59.8581 33.7527 59.9141 33.818C59.9795 33.874 60.0121 33.9487 60.0121 34.042V34.532C60.4975 33.8973 61.1741 33.58 62.0421 33.58C63.0781 33.58 63.8108 34.0093 64.2401 34.868C64.4641 34.476 64.7815 34.1633 65.1921 33.93C65.6028 33.6967 66.0648 33.58 66.5781 33.58C67.3435 33.58 67.9688 33.8413 68.4541 34.364C68.9395 34.8867 69.1821 35.6427 69.1821 36.632V40.678C69.1821 40.7713 69.1495 40.8507 69.0841 40.916C69.0281 40.972 68.9535 41 68.8601 41H68.2021C68.1088 41 68.0295 40.972 67.9641 40.916C67.9081 40.8507 67.8801 40.7713 67.8801 40.678V36.758C67.8801 36.03 67.7261 35.5073 67.4181 35.19C67.1195 34.8727 66.7228 34.714 66.2281 34.714C65.7895 34.714 65.4115 34.8773 65.0941 35.204C64.7768 35.5213 64.6181 36.0393 64.6181 36.758V40.678C64.6181 40.7713 64.5855 40.8507 64.5201 40.916C64.4641 40.972 64.3895 41 64.2961 41H63.6381C63.5448 41 63.4655 40.972 63.4001 40.916C63.3441 40.8507 63.3161 40.7713 63.3161 40.678V36.758C63.3161 36.03 63.1575 35.5073 62.8401 35.19C62.5321 34.8727 62.1401 34.714 61.6641 34.714C61.2255 34.714 60.8475 34.8773 60.5301 35.204C60.2128 35.5213 60.0541 36.0347 60.0541 36.744V40.678C60.0541 40.7713 60.0215 40.8507 59.9561 40.916C59.9001 40.972 59.8255 41 59.7321 41H59.0601ZM70.8716 36.1C70.7782 36.1 70.7036 36.072 70.6476 36.016C70.5916 35.96 70.5636 35.8853 70.5636 35.792V35.484C70.5636 35.4093 70.5869 35.3393 70.6336 35.274C70.6802 35.1993 70.7689 35.1153 70.8996 35.022L71.6276 34.49C72.0942 34.1633 72.4349 33.916 72.6496 33.748C72.8642 33.5707 73.0229 33.4027 73.1256 33.244C73.2376 33.076 73.2936 32.894 73.2936 32.698C73.2936 32.4927 73.2189 32.3293 73.0696 32.208C72.9202 32.0773 72.7336 32.012 72.5096 32.012C72.2576 32.012 72.0756 32.0587 71.9636 32.152C71.8516 32.2453 71.7769 32.3293 71.7396 32.404C71.7022 32.488 71.6789 32.5393 71.6696 32.558C71.6136 32.6607 71.5622 32.7307 71.5156 32.768C71.4689 32.796 71.4082 32.81 71.3336 32.81H70.9416C70.7736 32.81 70.6896 32.7307 70.6896 32.572C70.6896 32.3293 70.7736 32.096 70.9416 31.872C71.1096 31.648 71.3289 31.4707 71.5996 31.34C71.8796 31.2 72.1829 31.13 72.5096 31.13C73.0509 31.13 73.4849 31.2793 73.8116 31.578C74.1382 31.8767 74.3016 32.2453 74.3016 32.684C74.3016 33.0107 74.2269 33.3 74.0776 33.552C73.9376 33.7947 73.7276 34.0327 73.4476 34.266C73.1769 34.4993 72.7616 34.8073 72.2016 35.19H74.2036C74.2969 35.19 74.3716 35.218 74.4276 35.274C74.4836 35.33 74.5116 35.4047 74.5116 35.498V35.792C74.5116 35.8853 74.4836 35.96 74.4276 36.016C74.3716 36.072 74.2969 36.1 74.2036 36.1H70.8716Z" fill="#98A1B8"/>
    <path d="M111 1H1V71H111V1Z" stroke="#98A1B8" stroke-width="2"/>
  </symbol>
  <symbol id="plan-3" viewBox="0 0 102 72" fill="none" xmlns="http://www.w3.org/2000/svg">
    <path d="M23.3286 41.14C22.5819 41.14 21.9333 40.9907 21.3826 40.692C20.8319 40.384 20.4119 39.9733 20.1226 39.46C19.8333 38.9467 19.6886 38.3867 19.6886 37.78C19.6886 37.2853 19.7866 36.8187 19.9826 36.38C20.1879 35.932 20.4166 35.5353 20.6686 35.19L23.3286 31.48C23.3379 31.4707 23.3659 31.438 23.4126 31.382C23.4499 31.326 23.5013 31.284 23.5666 31.256C23.6319 31.2187 23.7066 31.2 23.7906 31.2H24.5326C24.6166 31.2 24.6819 31.2327 24.7286 31.298C24.7846 31.354 24.8126 31.424 24.8126 31.508C24.8126 31.5733 24.7939 31.634 24.7566 31.69L22.7126 34.546C22.9179 34.4807 23.1839 34.448 23.5106 34.448C24.1826 34.4573 24.7753 34.6113 25.2886 34.91C25.8113 35.2087 26.2126 35.61 26.4926 36.114C26.7819 36.618 26.9266 37.1687 26.9266 37.766C26.9266 38.3633 26.7819 38.9233 26.4926 39.446C26.2126 39.9593 25.7973 40.37 25.2466 40.678C24.7053 40.986 24.0659 41.14 23.3286 41.14ZM23.3146 39.95C23.7159 39.95 24.0846 39.866 24.4206 39.698C24.7659 39.53 25.0366 39.2827 25.2326 38.956C25.4379 38.62 25.5406 38.2233 25.5406 37.766C25.5406 37.318 25.4379 36.9307 25.2326 36.604C25.0366 36.2773 24.7659 36.03 24.4206 35.862C24.0846 35.694 23.7159 35.61 23.3146 35.61C22.9226 35.61 22.5539 35.694 22.2086 35.862C21.8726 36.03 21.6019 36.2773 21.3966 36.604C21.1913 36.9307 21.0886 37.318 21.0886 37.766C21.0886 38.2233 21.1913 38.62 21.3966 38.956C21.6019 39.2827 21.8726 39.53 22.2086 39.698C22.5446 39.866 22.9133 39.95 23.3146 39.95ZM31.8901 41.14C30.6861 41.14 29.8041 40.79 29.2441 40.09C28.6841 39.39 28.3855 38.4707 28.3481 37.332C28.3388 37.08 28.3341 36.674 28.3341 36.114C28.3341 35.5353 28.3388 35.1153 28.3481 34.854C28.3761 33.734 28.6748 32.824 29.2441 32.124C29.8135 31.4147 30.6955 31.06 31.8901 31.06C33.0941 31.06 33.9808 31.4147 34.5501 32.124C35.1195 32.824 35.4181 33.734 35.4461 34.854C35.4648 35.3767 35.4741 35.7967 35.4741 36.114C35.4741 36.422 35.4648 36.828 35.4461 37.332C35.4088 38.4707 35.1101 39.39 34.5501 40.09C33.9901 40.79 33.1035 41.14 31.8901 41.14ZM31.8901 39.936C32.5901 39.936 33.1175 39.7027 33.4721 39.236C33.8361 38.7693 34.0275 38.1113 34.0461 37.262C34.0648 36.7207 34.0741 36.3287 34.0741 36.086C34.0741 35.8247 34.0648 35.442 34.0461 34.938C34.0275 34.098 33.8408 33.44 33.4861 32.964C33.1315 32.488 32.5995 32.25 31.8901 32.25C31.1901 32.25 30.6581 32.488 30.2941 32.964C29.9395 33.44 29.7528 34.098 29.7341 34.938L29.7201 36.086L29.7341 37.262C29.7528 38.1113 29.9395 38.7693 30.2941 39.236C30.6581 39.7027 31.1901 39.936 31.8901 39.936ZM41.1285 41C41.0352 41 40.9558 40.972 40.8905 40.916C40.8345 40.8507 40.8065 40.7713 40.8065 40.678V34.042C40.8065 33.9487 40.8345 33.874 40.8905 33.818C40.9558 33.7527 41.0352 33.72 41.1285 33.72H41.7585C41.8518 33.72 41.9265 33.7527 41.9825 33.818C42.0478 33.874 42.0805 33.9487 42.0805 34.042V34.532C42.5658 33.8973 43.2425 33.58 44.1105 33.58C45.1465 33.58 45.8792 34.0093 46.3085 34.868C46.5325 34.476 46.8498 34.1633 47.2605 33.93C47.6712 33.6967 48.1332 33.58 48.6465 33.58C49.4118 33.58 50.0372 33.8413 50.5225 34.364C51.0078 34.8867 51.2505 35.6427 51.2505 36.632V40.678C51.2505 40.7713 51.2178 40.8507 51.1525 40.916C51.0965 40.972 51.0218 41 50.9285 41H50.2705C50.1772 41 50.0978 40.972 50.0325 40.916C49.9765 40.8507 49.9485 40.7713 49.9485 40.678V36.758C49.9485 36.03 49.7945 35.5073 49.4865 35.19C49.1878 34.8727 48.7912 34.714 48.2965 34.714C47.8578 34.714 47.4798 34.8773 47.1625 35.204C46.8452 35.5213 46.6865 36.0393 46.6865 36.758V40.678C46.6865 40.7713 46.6538 40.8507 46.5885 40.916C46.5325 40.972 46.4578 41 46.3645 41H45.7065C45.6132 41 45.5338 40.972 45.4685 40.916C45.4125 40.8507 45.3845 40.7713 45.3845 40.678V36.758C45.3845 36.03 45.2258 35.5073 44.9085 35.19C44.6005 34.8727 44.2085 34.714 43.7325 34.714C43.2938 34.714 42.9158 34.8773 42.5985 35.204C42.2812 35.5213 42.1225 36.0347 42.1225 36.744V40.678C42.1225 40.7713 42.0898 40.8507 42.0245 40.916C41.9685 40.972 41.8938 41 41.8005 41H41.1285ZM52.9399 36.1C52.8466 36.1 52.7719 36.072 52.7159 36.016C52.6599 35.96 52.6319 35.8853 52.6319 35.792V35.484C52.6319 35.4093 52.6552 35.3393 52.7019 35.274C52.7486 35.1993 52.8372 35.1153 52.9679 35.022L53.6959 34.49C54.1626 34.1633 54.5032 33.916 54.7179 33.748C54.9326 33.5707 55.0912 33.4027 55.1939 33.244C55.3059 33.076 55.3619 32.894 55.3619 32.698C55.3619 32.4927 55.2872 32.3293 55.1379 32.208C54.9886 32.0773 54.8019 32.012 54.5779 32.012C54.3259 32.012 54.1439 32.0587 54.0319 32.152C53.9199 32.2453 53.8452 32.3293 53.8079 32.404C53.7706 32.488 53.7472 32.5393 53.7379 32.558C53.6819 32.6607 53.6306 32.7307 53.5839 32.768C53.5372 32.796 53.4766 32.81 53.4019 32.81H53.0099C52.8419 32.81 52.7579 32.7307 52.7579 32.572C52.7579 32.3293 52.8419 32.096 53.0099 31.872C53.1779 31.648 53.3972 31.4707 53.6679 31.34C53.9479 31.2 54.2512 31.13 54.5779 31.13C55.1192 31.13 55.5532 31.2793 55.8799 31.578C56.2066 31.8767 56.3699 32.2453 56.3699 32.684C56.3699 33.0107 56.2952 33.3 56.1459 33.552C56.0059 33.7947 55.7959 34.0327 55.5159 34.266C55.2452 34.4993 54.8299 34.8073 54.2699 35.19H56.2719C56.3652 35.19 56.4399 35.218 56.4959 35.274C56.5519 35.33 56.5799 35.4047 56.5799 35.498V35.792C56.5799 35.8853 56.5519 35.96 56.4959 36.016C56.4399 36.072 56.3652 36.1 56.2719 36.1H52.9399Z" fill="#98A1B8"/>
    <path d="M101 1H1V71H71V37.5H101V1Z" stroke="#98A1B8" stroke-width="2"/>
  </symbol>
  <symbol id="plan-4" viewBox="0 0 72 72" fill="none" xmlns="http://www.w3.org/2000/svg">
    <path d="M17.1609 40C17.0675 40 16.9882 39.972 16.9229 39.916C16.8669 39.8507 16.8389 39.7713 16.8389 39.678V31.838L14.5149 33.63C14.4495 33.686 14.3795 33.714 14.3049 33.714C14.2209 33.714 14.1415 33.6673 14.0669 33.574L13.7029 33.112C13.6562 33.0467 13.6329 32.9813 13.6329 32.916C13.6329 32.804 13.6795 32.7153 13.7729 32.65L16.8249 30.298C16.9275 30.2327 17.0489 30.2 17.1889 30.2H17.9029C17.9962 30.2 18.0709 30.2327 18.1269 30.298C18.1922 30.354 18.2249 30.4287 18.2249 30.522V39.678C18.2249 39.7713 18.1922 39.8507 18.1269 39.916C18.0709 39.972 17.9962 40 17.9029 40H17.1609ZM23.7232 40.14C22.5192 40.14 21.6372 39.79 21.0772 39.09C20.5172 38.39 20.2185 37.4707 20.1812 36.332C20.1718 36.08 20.1672 35.674 20.1672 35.114C20.1672 34.5353 20.1718 34.1153 20.1812 33.854C20.2092 32.734 20.5078 31.824 21.0772 31.124C21.6465 30.4147 22.5285 30.06 23.7232 30.06C24.9272 30.06 25.8138 30.4147 26.3832 31.124C26.9525 31.824 27.2512 32.734 27.2792 33.854C27.2978 34.3767 27.3072 34.7967 27.3072 35.114C27.3072 35.422 27.2978 35.828 27.2792 36.332C27.2418 37.4707 26.9432 38.39 26.3832 39.09C25.8232 39.79 24.9365 40.14 23.7232 40.14ZM23.7232 38.936C24.4232 38.936 24.9505 38.7027 25.3052 38.236C25.6692 37.7693 25.8605 37.1113 25.8792 36.262C25.8978 35.7207 25.9072 35.3287 25.9072 35.086C25.9072 34.8247 25.8978 34.442 25.8792 33.938C25.8605 33.098 25.6738 32.44 25.3192 31.964C24.9645 31.488 24.4325 31.25 23.7232 31.25C23.0232 31.25 22.4912 31.488 22.1272 31.964C21.7725 32.44 21.5858 33.098 21.5672 33.938L21.5532 35.086L21.5672 36.262C21.5858 37.1113 21.7725 37.7693 22.1272 38.236C22.4912 38.7027 23.0232 38.936 23.7232 38.936ZM32.6099 40.14C31.4059 40.14 30.5239 39.79 29.9639 39.09C29.4039 38.39 29.1052 37.4707 29.0679 36.332C29.0585 36.08 29.0539 35.674 29.0539 35.114C29.0539 34.5353 29.0585 34.1153 29.0679 33.854C29.0959 32.734 29.3945 31.824 29.9639 31.124C30.5332 30.4147 31.4152 30.06 32.6099 30.06C33.8139 30.06 34.7005 30.4147 35.2699 31.124C35.8392 31.824 36.1379 32.734 36.1659 33.854C36.1845 34.3767 36.1939 34.7967 36.1939 35.114C36.1939 35.422 36.1845 35.828 36.1659 36.332C36.1285 37.4707 35.8299 38.39 35.2699 39.09C34.7099 39.79 33.8232 40.14 32.6099 40.14ZM32.6099 38.936C33.3099 38.936 33.8372 38.7027 34.1919 38.236C34.5559 37.7693 34.7472 37.1113 34.7659 36.262C34.7845 35.7207 34.7939 35.3287 34.7939 35.086C34.7939 34.8247 34.7845 34.442 34.7659 33.938C34.7472 33.098 34.5605 32.44 34.2059 31.964C33.8512 31.488 33.3192 31.25 32.6099 31.25C31.9099 31.25 31.3779 31.488 31.0139 31.964C30.6592 32.44 30.4725 33.098 30.4539 33.938L30.4399 35.086L30.4539 36.262C30.4725 37.1113 30.6592 37.7693 31.0139 38.236C31.3779 38.7027 31.9099 38.936 32.6099 38.936ZM41.8482 40C41.7549 40 41.6756 39.972 41.6102 39.916C41.5542 39.8507 41.5262 39.7713 41.5262 39.678V33.042C41.5262 32.9487 41.5542 32.874 41.6102 32.818C41.6756 32.7527 41.7549 32.72 41.8482 32.72H42.4782C42.5716 32.72 42.6462 32.7527 42.7022 32.818C42.7676 32.874 42.8002 32.9487 42.8002 33.042V33.532C43.2856 32.8973 43.9622 32.58 44.8302 32.58C45.8662 32.58 46.5989 33.0093 47.0282 33.868C47.2522 33.476 47.5696 33.1633 47.9802 32.93C48.3909 32.6967 48.8529 32.58 49.3662 32.58C50.1316 32.58 50.7569 32.8413 51.2422 33.364C51.7276 33.8867 51.9702 34.6427 51.9702 35.632V39.678C51.9702 39.7713 51.9376 39.8507 51.8722 39.916C51.8162 39.972 51.7416 40 51.6482 40H50.9902C50.8969 40 50.8176 39.972 50.7522 39.916C50.6962 39.8507 50.6682 39.7713 50.6682 39.678V35.758C50.6682 35.03 50.5142 34.5073 50.2062 34.19C49.9076 33.8727 49.5109 33.714 49.0162 33.714C48.5776 33.714 48.1996 33.8773 47.8822 34.204C47.5649 34.5213 47.4062 35.0393 47.4062 35.758V39.678C47.4062 39.7713 47.3736 39.8507 47.3082 39.916C47.2522 39.972 47.1776 40 47.0842 40H46.4262C46.3329 40 46.2536 39.972 46.1882 39.916C46.1322 39.8507 46.1042 39.7713 46.1042 39.678V35.758C46.1042 35.03 45.9456 34.5073 45.6282 34.19C45.3202 33.8727 44.9282 33.714 44.4522 33.714C44.0136 33.714 43.6356 33.8773 43.3182 34.204C43.0009 34.5213 42.8422 35.0347 42.8422 35.744V39.678C42.8422 39.7713 42.8096 39.8507 42.7442 39.916C42.6882 39.972 42.6136 40 42.5202 40H41.8482ZM53.6596 35.1C53.5663 35.1 53.4916 35.072 53.4356 35.016C53.3796 34.96 53.3516 34.8853 53.3516 34.792V34.484C53.3516 34.4093 53.375 34.3393 53.4216 34.274C53.4683 34.1993 53.557 34.1153 53.6876 34.022L54.4156 33.49C54.8823 33.1633 55.223 32.916 55.4376 32.748C55.6523 32.5707 55.811 32.4027 55.9136 32.244C56.0256 32.076 56.0816 31.894 56.0816 31.698C56.0816 31.4927 56.007 31.3293 55.8576 31.208C55.7083 31.0773 55.5216 31.012 55.2976 31.012C55.0456 31.012 54.8636 31.0587 54.7516 31.152C54.6396 31.2453 54.565 31.3293 54.5276 31.404C54.4903 31.488 54.467 31.5393 54.4576 31.558C54.4016 31.6607 54.3503 31.7307 54.3036 31.768C54.257 31.796 54.1963 31.81 54.1216 31.81H53.7296C53.5616 31.81 53.4776 31.7307 53.4776 31.572C53.4776 31.3293 53.5616 31.096 53.7296 30.872C53.8976 30.648 54.117 30.4707 54.3876 30.34C54.6676 30.2 54.971 30.13 55.2976 30.13C55.839 30.13 56.273 30.2793 56.5996 30.578C56.9263 30.8767 57.0896 31.2453 57.0896 31.684C57.0896 32.0107 57.015 32.3 56.8656 32.552C56.7256 32.7947 56.5156 33.0327 56.2356 33.266C55.965 33.4993 55.5496 33.8073 54.9896 34.19H56.9916C57.085 34.19 57.1596 34.218 57.2156 34.274C57.2716 34.33 57.2996 34.4047 57.2996 34.498V34.792C57.2996 34.8853 57.2716 34.96 57.2156 35.016C57.1596 35.072 57.085 35.1 56.9916 35.1H53.6596Z" fill="#98A1B8"/>
    <path d="M71 1H1V71H71V1Z" stroke="#98A1B8" stroke-width="2"/>
  </symbol>
  <symbol id="plus" viewBox="0 0 16 16" fill="none" xmlns="http://www.w3.org/2000/svg">
    <rect x="7" width="2" height="16" rx="1" fill="white"/>
    <rect y="9" width="2" height="16" rx="1" transform="rotate(-90 0 9)" fill="white"/>
  </symbol>
  <symbol id="projects" viewBox="0 0 32 32" fill="none" xmlns="http://www.w3.org/2000/svg">
    <path class="change-fill" d="M28 11L28.7071 10.2929C28.8946 10.4804 29 10.7348 29 11H28ZM19 2V1C19.2652 1 19.5196 1.10536 19.7071 1.29289L19 2ZM5 4V28H3V4H5ZM6 29H26V31H6V29ZM27 28V16H29V28H27ZM27 16V11H29V16H27ZM16 3H6V1H16V3ZM19 3H16V1H19V3ZM19.7071 1.29289L28.7071 10.2929L27.2929 11.7071L18.2929 2.70711L19.7071 1.29289ZM20 2V9H18V2H20ZM21 10H28V12H21V10ZM20 9C20 9.55228 20.4477 10 21 10V12C19.3431 12 18 10.6569 18 9H20ZM26 29C26.5523 29 27 28.5523 27 28H29C29 29.6569 27.6569 31 26 31V29ZM5 28C5 28.5523 5.44772 29 6 29V31C4.34315 31 3 29.6569 3 28H5ZM3 4C3 2.34315 4.34315 1 6 1V3C5.44772 3 5 3.44772 5 4H3Z" fill="#AD93F1"/>
    <path class="change-stroke" d="M20 16.1111V23H12V9H14.1667" stroke="#AD93F1" stroke-width="2" stroke-linecap="round" stroke-linejoin="round"/>
  </symbol>
  <symbol id="search-icon" viewBox="0 0 20 20" fill="none" xmlns="http://www.w3.org/2000/svg">
    <g clip-path="url(#clip0)">
    <path fill-rule="evenodd" clip-rule="evenodd" d="M11.3142 5.37171C12.8763 6.9338 12.8763 9.46646 11.3142 11.0286C9.7521 12.5907 7.21944 12.5907 5.65734 11.0286C4.09525 9.46646 4.09525 6.9338 5.65734 5.37171C7.21944 3.80961 9.7521 3.80961 11.3142 5.37171ZM13.3769 11.677C15.0468 9.3338 14.8306 6.05972 12.7284 3.95749C10.3853 1.61435 6.58627 1.61435 4.24313 3.95749C1.89998 6.30064 1.89998 10.0996 4.24313 12.4428C6.34535 14.545 9.61944 14.7611 11.9626 13.0912L16.2639 17.3925C16.6545 17.783 17.2876 17.783 17.6782 17.3925C18.0687 17.002 18.0687 16.3688 17.6782 15.9783L13.3769 11.677Z" fill="#98A1B8" fill-opacity="0.6"/>
    </g>
    <defs>
    <clipPath id="clip0">
    <rect x="0.000488281" width="20" height="20" fill="white"/>
    </clipPath>
    </defs>
  </symbol>
  <symbol id="search" viewBox="0 0 20 20" fill="none" xmlns="http://www.w3.org/2000/svg">
    <path fill-rule="evenodd" clip-rule="evenodd" d="M11.3137 5.37171C12.8758 6.9338 12.8758 9.46646 11.3137 11.0286C9.75161 12.5907 7.21895 12.5907 5.65685 11.0286C4.09476 9.46646 4.09476 6.9338 5.65685 5.37171C7.21895 3.80961 9.75161 3.80961 11.3137 5.37171ZM13.3764 11.677C15.0463 9.3338 14.8301 6.05972 12.7279 3.95749C10.3848 1.61435 6.58579 1.61435 4.24264 3.95749C1.89949 6.30064 1.89949 10.0996 4.24264 12.4428C6.34487 14.545 9.61895 14.7611 11.9622 13.0912L16.2635 17.3925C16.654 17.783 17.2871 17.783 17.6777 17.3925C18.0682 17.002 18.0682 16.3688 17.6777 15.9783L13.3764 11.677Z" fill="#98A1B8" fill-opacity="0.6"/>
  </symbol>
  <symbol id="settings" viewBox="0 0 32 32" fill="none" xmlns="http://www.w3.org/2000/svg">
    <g clip-path="url(#clip0)">
    <path class="change-stroke" d="M8.15088 4.40805C8.50814 3.78924 9.1684 3.40805 9.88293 3.40805L22.1138 3.40805C22.8284 3.40805 23.4886 3.78925 23.8459 4.40805L29.9613 15.0003C30.3186 15.6191 30.3186 16.3815 29.9613 17.0003L23.8459 27.5926C23.4886 28.2114 22.8284 28.5926 22.1138 28.5926L9.88293 28.5926C9.1684 28.5926 8.50814 28.2114 8.15088 27.5926L2.03542 17.0003C1.67815 16.3815 1.67815 15.6191 2.03542 15.0003L8.15088 4.40805Z" stroke="#AD93F1" stroke-width="2" stroke-linejoin="round"/>
    <circle class="change-stroke" cx="16" cy="15.9997" r="4" stroke="#AD93F1" stroke-width="2"/>
    </g>
    <defs>
    <clipPath id="clip0">
    <rect width="32" height="32" fill="white"/>
    </clipPath>
    </defs>
  </symbol>
  <symbol id="show-password" viewBox="0 0 32 32" fill="none" xmlns="http://www.w3.org/2000/svg">
    <path d="M29.8507 14.7792C30.5404 15.4626 30.5404 16.5374 29.8507 17.2208C27.5904 19.4608 22.2402 24 16 24C9.75979 24 4.40958 19.4608 2.14926 17.2208C1.45963 16.5374 1.45963 15.4626 2.14926 14.7792C4.40958 12.5392 9.75979 8 16 8C22.2402 8 27.5904 12.5392 29.8507 14.7792Z" stroke="#98A1B8" stroke-width="2" stroke-linejoin="round"/>
    <circle cx="16" cy="16" r="4" stroke="#98A1B8" stroke-width="2"/>
  </symbol>
  <symbol id="treedset-logo" viewBox="0 0 236 333" fill="none" xmlns="http://www.w3.org/2000/svg">
    <g clip-path="url(#clip0)">
    <path d="M12.5152 332.647C11.5775 332.647 10.8173 331.887 10.8173 330.95V300.278H1.05136C0.113666 300.278 -0.646484 299.518 -0.646484 298.581V294.209C-0.646484 293.273 0.113665 292.512 1.05136 292.512H28.733C29.6707 292.512 30.4309 293.273 30.4309 294.209V298.581C30.4309 299.518 29.6707 300.278 28.733 300.278H18.967V330.95C18.967 331.887 18.2069 332.647 17.2692 332.647H12.5152Z" fill="white"/>
    <path d="M39.8667 330.952C39.8667 331.889 39.1066 332.649 38.1689 332.649H33.9039C32.9662 332.649 32.2061 331.889 32.2061 330.952V304.748C32.2061 303.811 32.9662 303.051 33.9039 303.051H37.8429C38.7806 303.051 39.5407 303.811 39.5407 304.748V307.015C41.3155 303.83 44.032 302.236 47.6904 302.236C48.4692 302.236 49.248 302.328 50.0269 302.513C50.7757 302.691 51.2287 303.421 51.1606 304.188L50.8095 308.135C50.7141 309.21 49.6538 309.907 48.5875 309.743C48.0636 309.663 47.5652 309.622 47.0927 309.622C44.847 309.622 43.0722 310.382 41.7683 311.903C40.5005 313.388 39.8667 315.615 39.8667 318.583V330.952Z" fill="white"/>
    <path d="M82.8063 317.17C82.8063 317.722 82.7727 318.352 82.7056 319.064C82.626 319.91 81.9005 320.538 81.0507 320.538H60.3133C61.3999 324.738 64.2794 326.838 68.9519 326.838C71.7873 326.838 74.4505 326.162 76.9416 324.809C77.8136 324.336 78.9326 324.59 79.4213 325.454L80.8079 327.903C81.2341 328.657 81.0288 329.618 80.2938 330.074C76.835 332.224 72.9455 333.3 68.6259 333.3C63.4463 333.3 59.462 331.798 56.6731 328.793C53.9202 325.824 52.5439 322.167 52.5439 317.822C52.5439 313.296 53.9745 309.586 56.8361 306.689C59.6975 303.756 63.4101 302.29 67.9739 302.29C72.2841 302.29 75.8337 303.629 78.6228 306.308C81.4117 308.988 82.8063 312.608 82.8063 317.17ZM67.9739 308.644C66.0542 308.644 64.4061 309.206 63.0298 310.327C61.6895 311.414 60.7841 312.916 60.3133 314.835H75.3629C75.0006 312.916 74.1677 311.414 72.8637 310.327C71.5598 309.206 69.9298 308.644 67.9739 308.644Z" fill="white"/>
    <path d="M116.817 317.17C116.817 317.722 116.784 318.352 116.717 319.064C116.637 319.91 115.911 320.538 115.062 320.538H94.324C95.4106 324.738 98.2902 326.838 102.963 326.838C105.798 326.838 108.461 326.162 110.952 324.809C111.825 324.336 112.944 324.59 113.432 325.454L114.819 327.903C115.245 328.657 115.04 329.618 114.305 330.074C110.846 332.224 106.956 333.3 102.637 333.3C97.4572 333.3 93.4729 331.798 90.6838 328.793C87.9311 325.824 86.5547 322.167 86.5547 317.822C86.5547 313.296 87.9855 309.586 90.8468 306.689C93.7084 303.756 97.4209 302.29 101.985 302.29C106.295 302.29 109.845 303.629 112.634 306.308C115.423 308.988 116.817 312.608 116.817 317.17ZM101.985 308.644C100.065 308.644 98.417 309.206 97.0406 310.327C95.7005 311.414 94.795 312.916 94.324 314.835H109.374C109.012 312.916 108.178 311.414 106.874 310.327C105.571 309.206 103.941 308.644 101.985 308.644Z" fill="white"/>
    <path d="M144.199 306.47V293.069C144.199 292.132 144.959 291.372 145.897 291.372H150.162C151.1 291.372 151.86 292.132 151.86 293.069V330.95C151.86 331.887 151.1 332.647 150.162 332.647H146.06C145.122 332.647 144.362 331.887 144.362 330.95V329.008C141.971 331.906 138.911 333.353 135.18 333.353C130.942 333.353 127.447 331.887 124.694 328.954C121.905 325.948 120.511 322.238 120.511 317.821C120.511 313.44 121.905 309.747 124.694 306.741C127.519 303.773 131.015 302.288 135.18 302.288C138.73 302.288 141.736 303.681 144.199 306.47ZM144.579 317.821C144.579 315.431 143.819 313.422 142.297 311.792C140.776 310.127 138.802 309.294 136.375 309.294C133.948 309.294 131.956 310.127 130.399 311.792C128.878 313.422 128.117 315.431 128.117 317.821C128.117 320.246 128.878 322.293 130.399 323.958C131.956 325.587 133.948 326.402 136.375 326.402C138.802 326.402 140.776 325.587 142.297 323.958C143.819 322.293 144.579 320.246 144.579 317.821Z" fill="white"/>
    <path d="M168.69 333.408C164.044 333.408 160.271 331.857 157.369 328.756C156.817 328.167 156.839 327.263 157.359 326.647L159.231 324.425C159.913 323.615 161.158 323.631 161.957 324.325C162.667 324.941 163.444 325.47 164.289 325.913C165.774 326.638 167.259 327 168.744 327C169.903 327 170.862 326.728 171.623 326.185C172.421 325.642 172.818 324.954 172.818 324.121C172.818 323.071 172.112 322.22 170.699 321.569C170.265 321.387 169.088 320.936 167.169 320.211C165.466 319.595 164.198 319.07 163.365 318.636C159.961 317.007 158.258 314.454 158.258 310.978C158.258 308.407 159.273 306.272 161.301 304.57C163.293 302.905 165.973 302.071 169.342 302.071C173.014 302.071 176.117 303.149 178.656 305.306C179.296 305.851 179.34 306.8 178.829 307.465L177.063 309.758C176.45 310.556 175.287 310.634 174.462 310.058C172.801 308.898 171.022 308.317 169.125 308.317C168.147 308.317 167.332 308.57 166.68 309.077C166.064 309.548 165.756 310.128 165.756 310.815C165.756 312.046 166.625 312.952 168.364 313.531C172.239 314.978 174.611 315.939 175.481 316.409C178.813 318.147 180.479 320.645 180.479 323.904C180.479 326.692 179.392 328.973 177.219 330.747C175.119 332.521 172.275 333.408 168.69 333.408Z" fill="white"/>
    <path d="M214.391 317.17C214.391 317.722 214.357 318.352 214.291 319.064C214.211 319.91 213.485 320.538 212.636 320.538H191.898C192.985 324.738 195.864 326.838 200.537 326.838C203.372 326.838 206.034 326.162 208.527 324.809C209.398 324.336 210.517 324.59 211.006 325.454L212.393 327.903C212.819 328.657 212.614 329.618 211.878 330.074C208.42 332.224 204.53 333.3 200.211 333.3C195.031 333.3 191.048 331.798 188.258 328.793C185.506 325.824 184.129 322.167 184.129 317.822C184.129 313.296 185.56 309.586 188.421 306.689C191.282 303.756 194.995 302.29 199.559 302.29C203.87 302.29 207.418 303.629 210.208 306.308C212.997 308.988 214.391 312.608 214.391 317.17ZM199.559 308.644C197.639 308.644 195.992 309.206 194.615 310.327C193.275 311.414 192.369 312.916 191.898 314.835H206.948C206.586 312.916 205.753 311.414 204.449 310.327C203.145 309.206 201.515 308.644 199.559 308.644Z" fill="white"/>
    <path d="M236.57 325.747C237.541 325.364 238.693 325.762 239.063 326.738L240.16 329.641C240.441 330.382 240.175 331.229 239.475 331.601C237.271 332.768 234.745 333.352 231.893 333.352C228.489 333.352 225.916 332.375 224.178 330.42C222.439 328.429 221.57 325.513 221.57 321.676V309.456H218.432C217.495 309.456 216.734 308.696 216.734 307.759V304.745C216.734 303.808 217.495 303.047 218.432 303.047H221.624V294.263C221.624 293.326 222.385 292.566 223.322 292.566H227.533C228.47 292.566 229.231 293.326 229.231 294.263V303.047H237.312C238.249 303.047 239.01 303.808 239.01 304.745V307.759C239.01 308.696 238.249 309.456 237.312 309.456H229.231V321.187C229.231 324.663 230.624 326.401 233.414 326.401C234.412 326.401 235.463 326.183 236.57 325.747Z" fill="white"/>
    <path fill-rule="evenodd" clip-rule="evenodd" d="M138.15 5.46282C125.528 -1.82111 109.979 -1.82109 97.3577 5.46282L20.3937 49.8808C14.5426 53.2575 9.73301 57.9621 6.25684 63.4891L65.6855 98.4728C71.5527 84.2755 78.3532 69.989 85.0446 56.8713C98.7372 30.0288 135.131 30.0288 148.824 56.8713C155.628 70.2106 162.546 84.7584 168.48 99.192L229.179 63.3756C225.709 57.8976 220.924 53.2344 215.114 49.8808L138.15 5.46282Z" fill="#4ADE89"/>
    <path d="M0 85.1952V174.03C0 188.599 7.77488 202.059 20.3959 209.344L97.3599 253.762C100.972 255.846 104.824 257.335 108.778 258.226V216.687C90.7186 214.187 48.9502 203.887 48.9502 162.07C48.9502 144.813 56.0631 121.764 65.6877 98.4743L6.25899 63.4905C2.23699 69.8853 0 77.3811 0 85.1952Z" fill="#27AE60"/>
    <path d="M0 85.1952V174.03C0 188.599 7.77488 202.059 20.3959 209.344L97.3599 253.762C100.972 255.846 104.824 257.335 108.778 258.226V216.687C90.7186 214.187 48.9502 203.887 48.9502 162.07C48.9502 144.813 56.0631 121.764 65.6877 98.4743L6.25899 63.4905C2.23699 69.8853 0 77.3811 0 85.1952Z" fill="url(#paint0_radial)"/>
    <path d="M184.922 162.07C184.922 203.888 143.153 214.188 125.094 216.688V258.25C129.622 257.422 134.042 256.134 138.151 253.763L215.114 209.344C227.736 202.06 235.511 188.599 235.511 174.031V85.1957C235.511 77.3352 233.247 69.797 229.179 63.3774L168.481 99.194C177.954 122.238 184.922 144.991 184.922 162.07Z" fill="#27AE60"/>
    <path d="M184.922 162.07C184.922 203.888 143.153 214.188 125.094 216.688V258.25C129.622 257.422 134.042 256.134 138.151 253.763L215.114 209.344C227.736 202.06 235.511 188.599 235.511 174.031V85.1957C235.511 77.3352 233.247 69.797 229.179 63.3774L168.481 99.194C177.954 122.238 184.922 144.991 184.922 162.07Z" fill="url(#paint1_radial)"/>
    <path d="M48.9492 161.997C48.9492 203.813 90.7204 214.974 108.78 217.473V184.214L77.7149 167.494C73.7477 165.359 72.2633 160.413 74.3994 156.447C76.5354 152.482 81.4831 150.998 85.4504 153.133L108.78 165.69V132.734L86.0926 121.395C82.0624 119.381 80.4289 114.483 82.4439 110.454C84.4587 106.426 89.3592 104.792 93.3894 106.807L108.78 114.499V73.3251C108.78 68.8211 112.432 65.1699 116.938 65.1699C121.444 65.1699 125.097 68.8211 125.097 73.3251V114.497L140.481 106.807C144.511 104.792 149.412 106.425 151.427 110.454C153.442 114.482 151.809 119.381 147.779 121.395L125.097 132.732V165.688L148.42 153.133C152.388 150.998 157.335 152.482 159.472 156.447C161.608 160.413 160.124 165.359 156.156 167.494L125.097 184.212V217.473C143.156 214.974 184.922 203.813 184.922 161.997C184.922 144.918 177.954 122.165 168.481 99.1205C162.547 84.6868 155.63 70.1391 148.825 56.7999C135.133 29.9573 98.7383 29.9575 85.0458 56.7999C78.3543 69.9175 71.5538 84.204 65.6867 98.4012C56.0622 121.691 48.9492 144.74 48.9492 161.997Z" fill="white"/>
    <path fill-rule="evenodd" clip-rule="evenodd" d="M108.783 73.3966C108.783 68.8926 112.436 65.2415 116.941 65.2415C121.447 65.2415 125.1 68.8926 125.1 73.3968V114.568L140.484 106.878C144.514 104.864 149.415 106.497 151.43 110.525C153.445 114.554 151.812 119.452 147.782 121.467L125.1 132.804V165.76L148.423 153.205C152.391 151.07 157.338 152.553 159.475 156.519C161.611 160.484 160.127 165.43 156.159 167.566L125.1 184.284V216.676H125.095V258.248H108.778V214.753H108.783V184.285L77.718 167.566C73.7508 165.43 72.2664 160.485 74.4024 156.519C76.5385 152.553 81.4863 151.07 85.4535 153.205L108.783 165.761V132.806L86.0956 121.467C82.0656 119.453 80.432 114.554 82.447 110.526C84.462 106.497 89.3624 104.864 93.3924 106.878L108.783 114.57V73.3966Z" fill="#4ADE89"/>
    </g>
    <defs>
    <radialGradient id="paint0_radial" cx="0" cy="0" r="1" gradientUnits="userSpaceOnUse" gradientTransform="translate(-45.0004 237) rotate(-35.965) scale(202.625 115.127)">
    <stop stop-color="white" stop-opacity="0.41"/>
    <stop offset="1" stop-color="white" stop-opacity="0"/>
    </radialGradient>
    <radialGradient id="paint1_radial" cx="0" cy="0" r="1" gradientUnits="userSpaceOnUse" gradientTransform="translate(271.652 233.364) rotate(-141.771) scale(198.844 112.613)">
    <stop stop-color="white" stop-opacity="0.4"/>
    <stop offset="1" stop-color="white" stop-opacity="0"/>
    </radialGradient>
    <clipPath id="clip0">
    <rect width="236" height="332.648" fill="white"/>
    </clipPath>
    </defs>
  </symbol>
  <symbol id="big-silver-cube" viewBox="0 0 50 56" fill="none" xmlns="http://www.w3.org/2000/svg">
    <path opacity="0.5" fill-rule="evenodd" clip-rule="evenodd" d="M18.6409 1.74791C22.5635 -0.58264 27.4365 -0.582636 31.3591 1.74792L47.5858 11.3888L25 24.8078L2.41421 11.3888L18.6409 1.74791ZM27.5 29.1619L50 15.7938V35.4601C50 39.9049 47.665 44.0192 43.8591 46.2804L27.5 56V29.1619ZM22.5 29.1619V56L6.14088 46.2804C2.33498 44.0192 0 39.9049 0 35.4601V15.7938L22.5 29.1619Z" fill="#A1ABC5"/>
  </symbol>
  <symbol id="upload-image" viewBox="0 0 356 377" fill="none" xmlns="http://www.w3.org/2000/svg">
    <path d="M126.229 333.796C32.843 293.408 15.153 222.438 41.4437 150.314C67.3544 79.2317 241.251 9.94852 275.974 61.151C310.698 112.353 224.172 120.875 267.146 187.097C303.047 242.419 321.893 297.33 257.095 332.106C242.178 343.706 187.111 360.128 126.229 333.796Z" fill="#EEEEF5"/>
    <path d="M126.229 333.796C32.843 293.408 15.153 222.438 41.4437 150.314C67.3544 79.2317 241.251 9.94852 275.974 61.151C310.698 112.353 224.172 120.875 267.146 187.097C303.047 242.419 321.893 297.33 257.095 332.106C242.178 343.706 187.111 360.128 126.229 333.796Z" fill="#F7F8FB"/>
    <path d="M43.121 95.5201C32.9577 101.388 19.9758 97.9297 14.1251 87.796C8.27441 77.6623 11.7705 64.6905 21.9338 58.8227C32.0971 52.9549 58.2236 48.8241 64.0743 58.9578C69.925 69.0915 53.2844 89.6523 43.121 95.5201Z" fill="#F7F8FB"/>
    <path d="M243.179 205.268V173.516L186.356 116.647H167.415H101.651C96.128 116.647 91.6508 121.124 91.6508 126.647V205.268V248.767C91.6508 249.288 91.8536 249.788 92.2162 250.161L115.562 274.196L136.195 293.355C136.565 293.698 137.051 293.889 137.556 293.889H167.415H195.863C196.344 293.889 196.809 293.716 197.173 293.401L219.332 274.196L242.615 250.16C242.977 249.787 243.179 249.288 243.179 248.769V205.268Z" fill="white"/>
    <path d="M196.356 173.516H243.179L186.356 116.647V163.516C186.356 169.039 190.833 173.516 196.356 173.516Z" fill="#DFE3E7"/>
    <path d="M196.356 173.516H243.179L186.356 116.647V163.516C186.356 169.039 190.833 173.516 196.356 173.516Z" fill="url(#paint0_linear)"/>
    <circle cx="167.395" cy="206.026" r="23.4809" fill="#27AE60"/>
    <circle cx="167.395" cy="206.026" r="23.4809" fill="url(#paint1_linear)"/>
    <path d="M169.395 194.664C169.395 193.559 168.5 192.664 167.395 192.664C166.291 192.664 165.395 193.559 165.395 194.664L169.395 194.664ZM165.981 218.801C166.762 219.582 168.029 219.582 168.81 218.801L181.538 206.074C182.319 205.292 182.319 204.026 181.538 203.245C180.757 202.464 179.49 202.464 178.709 203.245L167.395 214.559L156.082 203.245C155.301 202.464 154.034 202.464 153.253 203.245C152.472 204.026 152.472 205.292 153.253 206.074L165.981 218.801ZM165.395 194.664L165.395 217.387L169.395 217.387L169.395 194.664L165.395 194.664Z" fill="white"/>
    <mask id="mask0" mask-type="alpha" maskUnits="userSpaceOnUse" x="0" y="0" width="356" height="377">
        <path d="M126.565 334.675C32.9304 294.179 15.1933 223.021 41.554 150.705C67.5337 79.4333 241.893 9.96577 276.709 61.3045C311.525 112.643 224.769 121.187 267.857 187.586C303.854 243.055 322.749 298.113 257.779 332.98C242.822 344.611 187.609 361.077 126.565 334.675Z" fill="#EEEEF5"/>
    </mask>
    <g mask="url(#mask0)">
        <path fill-rule="evenodd" clip-rule="evenodd" d="M62.1576 174.038C79.3084 188.661 111.679 221.417 123.45 252.807C129.668 269.386 134.196 280.767 137.332 288.259C131.821 291.138 124.561 290.496 116.582 286.977L125.004 270.228L109.674 283.323C99.5106 277.091 88.7031 266.825 79.135 253.707L96.4083 244.543L72.6621 244.071C66.01 233.296 61.1831 222.428 58.3321 212.47L87.4011 217.713L56.4964 204.826C53.8377 190.943 55.5637 179.609 62.1576 174.038ZM63.7979 172.836C66.5221 174.108 70.4516 176.597 75.7004 181.134C86.9669 190.872 103.602 213.553 116.578 233.77L126.393 211.582C119.607 201.47 112.033 192.819 104.416 186.094L99.0938 199.124L97.5056 180.53C84.4659 171.039 71.9645 167.678 63.7979 172.836ZM116.684 233.934C117.696 235.511 118.685 237.073 119.647 238.613C127.776 251.617 136.439 270.79 142.069 284.346C146.836 278.419 147.984 268.433 145.828 256.483L135.246 259.447L145.128 253.043C142.698 242.279 137.762 230.163 130.53 218.098L116.684 233.934ZM84.6647 226.241C87.4819 227.917 89.0486 230.48 88.1641 231.963C87.2795 233.447 84.2787 233.291 81.4614 231.614C78.6443 229.937 77.0775 227.375 77.962 225.891C78.8466 224.407 81.8475 224.564 84.6647 226.241ZM96.2197 231.578C96.5871 231.238 96.3625 230.398 95.7182 229.702C95.0739 229.005 94.2538 228.716 93.8865 229.055C93.5193 229.395 93.7437 230.234 94.388 230.931C95.0324 231.628 95.8524 231.917 96.2197 231.578Z" fill="#E3E3E8"/>
        <path fill-rule="evenodd" clip-rule="evenodd" d="M62.1576 174.038C79.3084 188.661 111.679 221.417 123.45 252.807C129.668 269.386 134.196 280.767 137.332 288.259C131.821 291.138 124.561 290.496 116.582 286.977L125.004 270.228L109.674 283.323C99.5106 277.091 88.7031 266.825 79.135 253.707L96.4083 244.543L72.6621 244.071C66.01 233.296 61.1831 222.428 58.3321 212.47L87.4011 217.713L56.4964 204.826C53.8377 190.943 55.5637 179.609 62.1576 174.038ZM63.7979 172.836C66.5221 174.108 70.4516 176.597 75.7004 181.134C86.9669 190.872 103.602 213.553 116.578 233.77L126.393 211.582C119.607 201.47 112.033 192.819 104.416 186.094L99.0938 199.124L97.5056 180.53C84.4659 171.039 71.9645 167.678 63.7979 172.836ZM116.684 233.934C117.696 235.511 118.685 237.073 119.647 238.613C127.776 251.617 136.439 270.79 142.069 284.346C146.836 278.419 147.984 268.433 145.828 256.483L135.246 259.447L145.128 253.043C142.698 242.279 137.762 230.163 130.53 218.098L116.684 233.934ZM84.6647 226.241C87.4819 227.917 89.0486 230.48 88.1641 231.963C87.2795 233.447 84.2787 233.291 81.4614 231.614C78.6443 229.937 77.0775 227.375 77.962 225.891C78.8466 224.407 81.8475 224.564 84.6647 226.241ZM96.2197 231.578C96.5871 231.238 96.3625 230.398 95.7182 229.702C95.0739 229.005 94.2538 228.716 93.8865 229.055C93.5193 229.395 93.7437 230.234 94.388 230.931C95.0324 231.628 95.8524 231.917 96.2197 231.578Z" fill="url(#paint2_linear)"/>
        <path fill-rule="evenodd" clip-rule="evenodd" d="M209.496 330.831C220.883 328.099 233.402 322.62 245.554 314.635L223.69 296.373L252.081 310.074C262.282 302.505 270.748 294.066 277.055 285.603L260.206 277.977L282.558 277.283C290.664 263.243 292.334 249.914 285.583 241.257C278.792 232.55 264.902 230.391 248.502 234.042L246.584 236.513L229.437 258.608L238.253 236.974C234.399 238.311 230.466 239.931 226.505 241.826L206.446 264.018L208.214 275.045L203.311 267.487L197.086 274.374L201.735 265.056L198.422 259.949C186.475 269.921 177.437 280.998 172.161 291.478L184.484 304.405L169.871 296.583C165.659 307.313 165.731 317.081 171.07 323.927C172.156 325.319 173.423 326.543 174.852 327.604C175.098 327.231 175.346 326.855 175.596 326.475C182.589 315.868 191.242 302.742 202.209 292.085C220.035 274.763 241.733 263.904 257.385 257.904C269.907 253.104 284.436 249.169 285.694 249.992C281.022 251.636 276.557 253.045 272.211 254.416C257.455 259.072 244.066 263.296 228.586 274.831C210.554 288.267 196.27 312.886 186.818 332.308C192.313 333.193 198.657 332.967 205.499 331.686L199.166 317.5L209.496 330.831ZM207.888 252.724L205.427 257.656L204.971 254.815C205.329 254.551 205.688 254.289 206.05 254.028C206.661 253.587 207.274 253.152 207.888 252.724ZM238.464 285.488C239.197 286.928 241.408 287.348 243.404 286.427C245.4 285.505 246.423 283.59 245.691 282.15C244.958 280.709 242.747 280.289 240.751 281.211C238.756 282.133 237.732 284.048 238.464 285.488Z" fill="#EFEFF8"/>
        <path fill-rule="evenodd" clip-rule="evenodd" d="M139.903 317.122C118.254 289.224 71.3293 275.239 47.1493 269.274C43.7922 279.88 45.5031 292.41 51.4345 304.748L76.0311 301.433L64.784 308.795L102.338 299.65L60.5899 319.41C66.6508 327.219 74.3988 334.573 83.5908 340.867C97.7938 350.592 113.115 356.191 127.142 357.634L139.759 339.138L131.474 357.95C141.006 358.351 149.793 356.75 157.029 353.136C154.656 342.675 149.869 329.965 139.903 317.122ZM71.58 272.181C62.8088 269.805 53.4668 268.226 47.6619 267.776C48.598 265.236 49.8379 262.816 51.3936 260.547C57.8506 251.13 68.6979 245.845 81.5736 244.666L111.758 280.449L97.6812 245.195C107.888 246.691 118.666 250.329 129.123 256.099L142.002 304.652L142.249 264.638C156.369 275.344 166.607 288.574 171.933 301.758L157.155 320.123L173.993 307.673C177.614 320.069 176.706 332.079 170.4 341.531C159.752 327.747 145.686 310.456 134.568 301.962C113.56 285.911 88.2996 276.712 71.58 272.181ZM115.793 310.259C116.307 308.8 115.621 307.229 114.261 306.75C112.9 306.271 111.38 307.066 110.865 308.525C110.351 309.984 111.037 311.555 112.398 312.034C113.758 312.513 115.278 311.718 115.793 310.259Z" fill="#EFEFF8"/>
        <path fill-rule="evenodd" clip-rule="evenodd" d="M250.598 317.964C233.87 320.78 201.266 327.816 184.961 345.075C177.456 353.02 173.466 361.11 171.243 367.838C175.931 370.523 181.789 371.963 188.268 372.127L183.764 359.465L191.221 372.115C200.806 371.799 211.512 368.827 221.704 363.109C228.3 359.408 233.981 354.95 238.545 350.12L211.432 335.341L236.329 342.996L229.145 337.683L245.609 340.949C250.352 333.154 252.248 325.045 250.598 317.964ZM250.339 316.963C246.381 316.998 239.961 317.61 233.881 318.771C222.29 320.982 204.639 325.862 189.467 335.409C181.437 340.461 170.893 351.129 162.87 359.658C159.154 353.2 159.246 345.312 162.428 337.376L173.1 346.264L164.172 333.603C168.554 325.228 176.267 317.042 186.46 310.68L184.273 336.834L195.853 305.688C203.275 302.386 210.789 300.492 217.79 299.971L206.182 322.374L228.731 300.346C237.382 301.693 244.418 305.631 248.237 312.073C249.157 313.625 249.855 315.261 250.339 316.963Z" fill="#E3E3E8"/>
        <path fill-rule="evenodd" clip-rule="evenodd" d="M250.598 317.964C233.87 320.78 201.266 327.816 184.961 345.075C177.456 353.02 173.466 361.11 171.243 367.838C175.931 370.523 181.789 371.963 188.268 372.127L183.764 359.465L191.221 372.115C200.806 371.799 211.512 368.827 221.704 363.109C228.3 359.408 233.981 354.95 238.545 350.12L211.432 335.341L236.329 342.996L229.145 337.683L245.609 340.949C250.352 333.154 252.248 325.045 250.598 317.964ZM250.339 316.963C246.381 316.998 239.961 317.61 233.881 318.771C222.29 320.982 204.639 325.862 189.467 335.409C181.437 340.461 170.893 351.129 162.87 359.658C159.154 353.2 159.246 345.312 162.428 337.376L173.1 346.264L164.172 333.603C168.554 325.228 176.267 317.042 186.46 310.68L184.273 336.834L195.853 305.688C203.275 302.386 210.789 300.492 217.79 299.971L206.182 322.374L228.731 300.346C237.382 301.693 244.418 305.631 248.237 312.073C249.157 313.625 249.855 315.261 250.339 316.963Z" fill="url(#paint3_linear)"/>
    </g>
    <defs>
        <linearGradient id="paint0_linear" x1="214.767" y1="116.647" x2="214.767" y2="173.516" gradientUnits="userSpaceOnUse">
            <stop stop-color="white"/>
            <stop offset="1" stop-color="white" stop-opacity="0"/>
        </linearGradient>
        <linearGradient id="paint1_linear" x1="167.395" y1="182.545" x2="167.395" y2="229.506" gradientUnits="userSpaceOnUse">
            <stop stop-color="#EBFFF3" stop-opacity="0.6"/>
            <stop offset="1" stop-color="white" stop-opacity="0"/>
        </linearGradient>
        <linearGradient id="paint2_linear" x1="84.0686" y1="166.708" x2="118.118" y2="293.782" gradientUnits="userSpaceOnUse">
            <stop stop-color="white" stop-opacity="0"/>
            <stop offset="1" stop-color="#CEC9DD"/>
        </linearGradient>
        <linearGradient id="paint3_linear" x1="239.354" y1="302.269" x2="172.417" y2="369.205" gradientUnits="userSpaceOnUse">
            <stop stop-color="white" stop-opacity="0"/>
            <stop offset="1" stop-color="#CEC9DD"/>
        </linearGradient>
    </defs>
  </symbol>
    <symbol id="star" viewBox="0 0 20 19" fill="none" xmlns="http://www.w3.org/2000/svg">
        <path d="M9.10326 0.816986C9.47008 0.0737407 10.5299 0.0737401 10.8967 0.816986L13.0001 5.07896C13.1458 5.37411 13.4274 5.57868 13.7531 5.62601L18.4565 6.30945C19.2767 6.42863 19.6042 7.4366 19.0107 8.01514L15.6073 11.3326C15.3716 11.5624 15.264 11.8934 15.3197 12.2178L16.1231 16.9021C16.2632 17.719 15.4058 18.342 14.6722 17.9563L10.4653 15.7446C10.174 15.5915 9.82598 15.5915 9.53466 15.7446L5.32784 17.9563C4.59421 18.342 3.73677 17.719 3.87688 16.9021L4.68032 12.2178C4.73596 11.8934 4.62841 11.5624 4.39272 11.3326L0.989329 8.01514C0.395812 7.4366 0.723321 6.42863 1.54354 6.30945L6.24691 5.62601C6.57262 5.57868 6.85419 5.37411 6.99985 5.07896L9.10326 0.816986Z" fill="#FFC700"/>
    </symbol>
    <symbol id="price" viewBox="0 0 20 20" fill="none" xmlns="http://www.w3.org/2000/svg">
        <g opacity="0.6">
            <path fill-rule="evenodd" clip-rule="evenodd" d="M10 1.33333C5.21353 1.33333 1.33333 5.21353 1.33333 10C1.33333 14.7865 5.21353 18.6667 10 18.6667C14.7865 18.6667 18.6667 14.7865 18.6667 10C18.6667 5.21353 14.7865 1.33333 10 1.33333ZM0 10C0 4.47715 4.47715 0 10 0C15.5228 0 20 4.47715 20 10C20 15.5228 15.5228 20 10 20C4.47715 20 0 15.5228 0 10Z" fill="#98A1B8"/>
            <path d="M9.33301 3.33335C9.33301 2.96516 9.63148 2.66669 9.99967 2.66669C10.3679 2.66669 10.6663 2.96516 10.6663 3.33335V4.66669C10.6663 5.03488 10.3679 5.33335 9.99967 5.33335C9.63148 5.33335 9.33301 5.03488 9.33301 4.66669V3.33335Z" fill="#98A1B8"/>
            <path d="M9.33301 15.3334C9.33301 14.9652 9.63148 14.6667 9.99967 14.6667C10.3679 14.6667 10.6663 14.9652 10.6663 15.3334V16.6667C10.6663 17.0349 10.3679 17.3334 9.99967 17.3334C9.63148 17.3334 9.33301 17.0349 9.33301 16.6667V15.3334Z" fill="#98A1B8"/>
            <path fill-rule="evenodd" clip-rule="evenodd" d="M8.01009 7.7576C8.01009 6.79214 8.80082 6.00002 9.78797 6.00002C10.7751 6.00002 11.5658 6.79214 11.5658 7.7576C11.5658 8.12579 11.8643 8.42426 12.2325 8.42426C12.6007 8.42426 12.8992 8.12579 12.8992 7.7576C12.8992 6.0453 11.501 4.66669 9.78797 4.66669C8.07494 4.66669 6.67676 6.0453 6.67676 7.7576C6.67676 9.41043 7.97952 10.7524 9.61068 10.8436V10.8481H9.74031C9.75617 10.8484 9.77205 10.8485 9.78797 10.8485H10.3136C11.2838 10.8676 12.0552 11.6521 12.0552 12.6057C12.0552 13.5712 11.2645 14.3633 10.2774 14.3633C9.29021 14.3633 8.49948 13.5712 8.49948 12.6057C8.49948 12.2375 8.201 11.9391 7.83281 11.9391C7.46462 11.9391 7.16614 12.2375 7.16614 12.6057C7.16614 14.318 8.56433 15.6966 10.2774 15.6966C11.9904 15.6966 13.3886 14.318 13.3886 12.6057C13.3886 10.9529 12.0858 9.61097 10.4546 9.51976V9.51517H10.325C10.3091 9.51494 10.2933 9.51482 10.2774 9.51482H9.75176C8.78156 9.49573 8.01009 8.71122 8.01009 7.7576Z" fill="#98A1B8"/>
        </g>
    </symbol>
    <symbol id="experience" viewBox="0 0 21 21" fill="none" xmlns="http://www.w3.org/2000/svg">
        <path fill-rule="evenodd" clip-rule="evenodd" d="M2.03226 7.45164C1.65813 7.45164 1.35484 7.75493 1.35484 8.12906V11.5162C1.35484 11.8903 1.65813 12.1936 2.03226 12.1936H18.2903C18.6645 12.1936 18.9677 11.8903 18.9677 11.5162V8.12906C18.9677 7.75493 19.271 7.45164 19.6452 7.45164C20.0193 7.45164 20.3226 7.75493 20.3226 8.12906V11.5162C20.3226 12.6385 19.4127 13.5484 18.2903 13.5484H2.03226C0.909874 13.5484 0 12.6385 0 11.5162V8.12906C0 7.00667 0.909873 6.0968 2.03226 6.0968H10.1613V7.45164H2.03226Z" fill="#98A1B8"/>
        <path fill-rule="evenodd" clip-rule="evenodd" d="M2.03226 7.45164C1.65813 7.45164 1.35484 7.75493 1.35484 8.12906V18.9678C1.35484 19.3419 1.65813 19.6452 2.03226 19.6452H18.2903C18.6645 19.6452 18.9677 19.3419 18.9677 18.9678V8.12906H20.3226V18.9678C20.3226 20.0902 19.4127 21 18.2903 21H2.03226C0.909874 21 0 20.0902 0 18.9678V8.12906C0 7.00668 0.909873 6.0968 2.03226 6.0968H10.8387V7.45164H2.03226Z" fill="#98A1B8"/>
        <path fill-rule="evenodd" clip-rule="evenodd" d="M6.77396 3.38713C6.39983 3.38713 6.09654 3.69042 6.09654 4.06455V6.77422H4.7417V4.06455C4.7417 2.94216 5.65157 2.03229 6.77396 2.03229H11.8546V3.38713H6.77396Z" fill="#98A1B8"/>
        <path fill-rule="evenodd" clip-rule="evenodd" d="M8.12925 12.1935V14.2258C8.12925 14.5999 8.43254 14.9032 8.80667 14.9032H11.5163C11.8905 14.9032 12.1938 14.5999 12.1938 14.2258V12.1935H13.5486V14.2258C13.5486 15.3482 12.6387 16.2581 11.5163 16.2581H8.80667C7.68429 16.2581 6.77441 15.3482 6.77441 14.2258V12.1935H8.12925Z" fill="#98A1B8"/>
        <path fill-rule="evenodd" clip-rule="evenodd" d="M15.5805 1.35484C13.3357 1.35484 11.516 3.17458 11.516 5.41935C11.516 7.66412 13.3357 9.48387 15.5805 9.48387C17.8253 9.48387 19.645 7.66412 19.645 5.41935C19.645 3.17458 17.8253 1.35484 15.5805 1.35484ZM10.1611 5.41935C10.1611 2.42633 12.5875 0 15.5805 0C18.5735 0 20.9998 2.42633 20.9998 5.41935C20.9998 8.41238 18.5735 10.8387 15.5805 10.8387C12.5875 10.8387 10.1611 8.41238 10.1611 5.41935Z" fill="#98A1B8"/>
        <path fill-rule="evenodd" clip-rule="evenodd" d="M15.5807 2.70966C15.2066 2.70966 14.9033 3.01295 14.9033 3.38708V5.41933C14.9033 5.79346 15.2066 6.09675 15.5807 6.09675C15.9549 6.09675 16.2582 5.79346 16.2582 5.41933V3.38708C16.2582 3.01295 15.9549 2.70966 15.5807 2.70966Z" fill="#98A1B8"/>
        <path fill-rule="evenodd" clip-rule="evenodd" d="M14.9033 5.41938C14.9033 5.79351 15.2066 6.0968 15.5807 6.0968L17.613 6.0968C17.9871 6.0968 18.2904 5.79351 18.2904 5.41938C18.2904 5.04525 17.9871 4.74196 17.613 4.74196L15.5807 4.74196C15.2066 4.74196 14.9033 5.04525 14.9033 5.41938Z" fill="#98A1B8"/>
    </symbol>
    <symbol id="location" viewBox="0 0 17 22" fill="none" xmlns="http://www.w3.org/2000/svg">
        <path fill-rule="evenodd" clip-rule="evenodd" d="M8.12988 1.77412C4.57141 1.77412 1.6867 4.65197 1.6867 8.20198C1.6867 8.8708 1.94676 9.7943 2.42557 10.8935C2.89679 11.9752 3.54837 13.1576 4.26128 14.3214C5.67369 16.6271 7.29315 18.8058 8.12988 19.8956C8.96662 18.8058 10.5861 16.6271 11.9985 14.3214C12.7114 13.1576 13.363 11.9752 13.8342 10.8935C14.313 9.7943 14.5731 8.8708 14.5731 8.20198C14.5731 4.65197 11.6884 1.77412 8.12988 1.77412ZM0.254883 8.20198C0.254883 3.86308 3.78064 0.345703 8.12988 0.345703C12.4791 0.345703 16.0049 3.86308 16.0049 8.20198C16.0049 9.17165 15.6473 10.3151 15.1474 11.4628C14.6399 12.6279 13.9516 13.8722 13.2202 15.0662C11.7567 17.4553 10.0859 19.6983 9.24361 20.794C8.67818 21.5296 7.58159 21.5296 7.01616 20.794C6.17382 19.6983 4.50304 17.4553 3.03954 15.0662C2.30812 13.8722 1.61989 12.6279 1.11239 11.4628C0.61247 10.3151 0.254883 9.17165 0.254883 8.20198Z" fill="#98A1B8"/>
        <path fill-rule="evenodd" clip-rule="evenodd" d="M8.12984 6.05903C6.94368 6.05903 5.98211 7.01831 5.98211 8.20165C5.98211 9.38499 6.94368 10.3443 8.12984 10.3443C9.316 10.3443 10.2776 9.38499 10.2776 8.20165C10.2776 7.01831 9.316 6.05903 8.12984 6.05903ZM4.55029 8.20165C4.55029 6.22942 6.15291 4.63062 8.12984 4.63062C10.1068 4.63062 11.7094 6.22942 11.7094 8.20165C11.7094 10.1739 10.1068 11.7727 8.12984 11.7727C6.15291 11.7727 4.55029 10.1739 4.55029 8.20165Z" fill="#98A1B8"/>
    </symbol>
</svg>
